<?xml version="1.0" encoding="UTF-8" standalone="no"?>
<!-- Created with Inkscape (http://www.inkscape.org/) -->

<svg
   xmlns:dc="http://purl.org/dc/elements/1.1/"
   xmlns:cc="http://creativecommons.org/ns#"
   xmlns:rdf="http://www.w3.org/1999/02/22-rdf-syntax-ns#"
   xmlns:svg="http://www.w3.org/2000/svg"
   xmlns="http://www.w3.org/2000/svg"
   xmlns:sodipodi="http://sodipodi.sourceforge.net/DTD/sodipodi-0.dtd"
   xmlns:inkscape="http://www.inkscape.org/namespaces/inkscape"
   width="400"
   height="90"
   viewBox="0 0 399.99997 90.000003"
   id="svg4266"
   version="1.1"
   inkscape:version="0.91 r13725"
   sodipodi:docname="assistant.svg">
  <defs
     id="defs4268" />
  <sodipodi:namedview
     id="base"
     pagecolor="#ffffff"
     bordercolor="#666666"
     borderopacity="1.0"
     inkscape:pageopacity="0.0"
     inkscape:pageshadow="2"
     inkscape:zoom="0.98994948"
     inkscape:cx="101.24619"
     inkscape:cy="111.43713"
     inkscape:document-units="px"
     inkscape:current-layer="layer1"
     showgrid="false"
     inkscape:window-width="1366"
     inkscape:window-height="744"
     inkscape:window-x="0"
     inkscape:window-y="24"
     inkscape:window-maximized="1"
     inkscape:snap-bbox="false"
     inkscape:bbox-paths="true"
     inkscape:bbox-nodes="true"
     inkscape:snap-bbox-edge-midpoints="true"
     inkscape:snap-bbox-midpoints="true"
     units="px" />
  <metadata
     id="metadata4271">
    <rdf:RDF>
      <cc:Work
         rdf:about="">
        <dc:format>image/svg+xml</dc:format>
        <dc:type
           rdf:resource="http://purl.org/dc/dcmitype/StillImage" />
        <dc:title></dc:title>
      </cc:Work>
    </rdf:RDF>
  </metadata>
  <g
     inkscape:label="Layer 1"
     inkscape:groupmode="layer"
     id="layer1"
     transform="translate(0,-962.36209)">
    <g
       id="g4138"
       transform="matrix(0.07408017,0,0,0.07337468,160.62663,969.14371)">
      <path
         inkscape:connector-curvature="0"
         style="color:#000000;clip-rule:nonzero;display:inline;overflow:visible;visibility:visible;opacity:1;isolation:auto;mix-blend-mode:normal;color-interpolation:sRGB;color-interpolation-filters:linearRGB;solid-color:#000000;solid-opacity:1;fill:#cfd8dc;fill-opacity:1;fill-rule:nonzero;stroke:#78909c;stroke-width:20;stroke-linecap:butt;stroke-linejoin:miter;stroke-miterlimit:4;stroke-dasharray:none;stroke-dashoffset:0;stroke-opacity:1;marker:none;color-rendering:auto;image-rendering:auto;shape-rendering:auto;text-rendering:auto;enable-background:accumulate"
         d="m 531.48148,28.553581 c -271.9016,0 -492.301797,220.427909 -492.301797,492.327709 0,271.89985 220.400197,492.29731 492.301797,492.29731 271.90159,0 492.33192,-220.39746 492.33192,-492.29731 0,-271.8998 -220.43033,-492.327709 -492.33192,-492.327709 z m 0,217.907089 c 151.55463,0 274.42311,122.8675 274.42311,274.42062 0,151.55312 -122.86848,274.39026 -274.42311,274.39026 -151.55463,0 -274.39295,-122.83714 -274.39295,-274.39026 0,-151.55312 122.83832,-274.42062 274.39295,-274.42062 z"
         id="path5572" />
      <path
         inkscape:connector-curvature="0"
         style="color:#000000;clip-rule:nonzero;display:inline;overflow:visible;visibility:visible;opacity:1;isolation:auto;mix-blend-mode:normal;color-interpolation:sRGB;color-interpolation-filters:linearRGB;solid-color:#000000;solid-opacity:1;fill:#ff5722;fill-opacity:1;fill-rule:nonzero;stroke:#d84315;stroke-width:20;stroke-linecap:butt;stroke-linejoin:miter;stroke-miterlimit:4;stroke-dasharray:none;stroke-dashoffset:0;stroke-opacity:1;marker:none;color-rendering:auto;image-rendering:auto;shape-rendering:auto;text-rendering:auto;enable-background:accumulate"
         d="m 1007.1541,393.4141 -210.55247,56.42238 c 6.05865,22.66311 9.30296,46.47209 9.30296,71.04481 0,24.56241 -3.24918,48.36117 -9.30296,71.01436 l 210.55247,56.42238 c 10.8624,-40.64629 16.6593,-83.36503 16.6593,-127.43674 0,-44.08192 -5.7921,-86.81107 -16.6593,-127.46719 z"
         id="path5574" />
      <path
         inkscape:connector-curvature="0"
         style="color:#000000;clip-rule:nonzero;display:inline;overflow:visible;visibility:visible;opacity:1;isolation:auto;mix-blend-mode:normal;color-interpolation:sRGB;color-interpolation-filters:linearRGB;solid-color:#000000;solid-opacity:1;fill:#ff5722;fill-opacity:1;fill-rule:nonzero;stroke:#d84315;stroke-width:20;stroke-linecap:butt;stroke-linejoin:miter;stroke-miterlimit:4;stroke-dasharray:none;stroke-dashoffset:0;stroke-opacity:1;marker:none;color-rendering:auto;image-rendering:auto;shape-rendering:auto;text-rendering:auto;enable-background:accumulate"
         d="m 55.839982,393.4141 c -10.867231,40.65612 -16.660299,83.38527 -16.660299,127.46719 0,44.07171 5.797932,86.79045 16.660299,127.43674 L 266.39148,591.9261 c -6.05767,-22.66175 -9.30295,-46.47209 -9.30295,-71.04481 0,-24.57272 3.24528,-48.3817 9.30295,-71.04481 L 55.839982,393.4141 Z"
         id="path5576" />
      <path
         inkscape:connector-curvature="0"
         style="color:#000000;clip-rule:nonzero;display:inline;overflow:visible;visibility:visible;opacity:1;isolation:auto;mix-blend-mode:normal;color-interpolation:sRGB;color-interpolation-filters:linearRGB;solid-color:#000000;solid-opacity:1;fill:#ff5722;fill-opacity:1;fill-rule:nonzero;stroke:#d84315;stroke-width:20;stroke-linecap:butt;stroke-linejoin:miter;stroke-miterlimit:4;stroke-dasharray:none;stroke-dashoffset:0;stroke-opacity:1;marker:none;color-rendering:auto;image-rendering:auto;shape-rendering:auto;text-rendering:auto;enable-background:accumulate"
         d="m 531.48148,28.553581 c -44.07206,0 -86.79095,5.796231 -127.43776,16.659192 l 56.42282,210.550197 c 22.65377,-6.05373 46.45253,-9.3023 71.01494,-9.3023 24.57311,0 48.38257,3.24361 71.04509,9.3023 L 658.9494,45.212773 C 618.29286,34.344948 575.56327,28.553581 531.48148,28.553581 Z"
         id="path5578" />
      <path
         inkscape:connector-curvature="0"
         style="color:#000000;clip-rule:nonzero;display:inline;overflow:visible;visibility:visible;opacity:1;isolation:auto;mix-blend-mode:normal;color-interpolation:sRGB;color-interpolation-filters:linearRGB;solid-color:#000000;solid-opacity:1;fill:#ff5722;fill-opacity:1;fill-rule:nonzero;stroke:#d84315;stroke-width:20;stroke-linecap:butt;stroke-linejoin:miter;stroke-miterlimit:4;stroke-dasharray:none;stroke-dashoffset:0;stroke-opacity:1;marker:none;color-rendering:auto;image-rendering:auto;shape-rendering:auto;text-rendering:auto;enable-background:accumulate"
         d="m 460.46654,785.96916 -56.42282,210.55029 c 40.64681,10.86155 83.3657,16.65915 127.43776,16.65915 44.08179,0 86.81138,-5.7927 127.46792,-16.65915 L 602.52657,785.96916 c -22.66252,6.05738 -46.47198,9.30239 -71.04509,9.30239 -24.56241,0 -48.36117,-3.24991 -71.01494,-9.30239 z"
         id="path5580" />
    </g>
  </g>
</svg>
