<?xml version="1.0" encoding="UTF-8" standalone="no"?>
<!-- Created with Inkscape (http://www.inkscape.org/) -->

<svg
   xmlns:dc="http://purl.org/dc/elements/1.1/"
   xmlns:cc="http://creativecommons.org/ns#"
   xmlns:rdf="http://www.w3.org/1999/02/22-rdf-syntax-ns#"
   xmlns:svg="http://www.w3.org/2000/svg"
   xmlns="http://www.w3.org/2000/svg"
   xmlns:sodipodi="http://sodipodi.sourceforge.net/DTD/sodipodi-0.dtd"
   xmlns:inkscape="http://www.inkscape.org/namespaces/inkscape"
   width="300mm"
   height="300mm"
   viewBox="0 0 1062.992 1062.9921"
   id="svg4266"
   version="1.1"
   inkscape:version="0.91 r13725"
   sodipodi:docname="CEADEN.svg">
  <defs
     id="defs4268" />
  <sodipodi:namedview
     id="base"
     pagecolor="#ffffff"
     bordercolor="#666666"
     borderopacity="1.0"
     inkscape:pageopacity="0.0"
     inkscape:pageshadow="2"
     inkscape:zoom="0.32"
     inkscape:cx="354.57455"
     inkscape:cy="617.05634"
     inkscape:document-units="px"
     inkscape:current-layer="layer1"
     showgrid="false"
     inkscape:window-width="1366"
     inkscape:window-height="744"
     inkscape:window-x="0"
     inkscape:window-y="24"
     inkscape:window-maximized="1"
     inkscape:snap-bbox="false"
     inkscape:bbox-paths="true"
     inkscape:bbox-nodes="true"
     inkscape:snap-bbox-edge-midpoints="true"
     inkscape:snap-bbox-midpoints="true"
     inkscape:object-paths="true"
     inkscape:object-nodes="true"
     inkscape:snap-intersection-paths="true"
     inkscape:snap-smooth-nodes="true"
     inkscape:snap-nodes="false" />
  <metadata
     id="metadata4271">
    <rdf:RDF>
      <cc:Work
         rdf:about="">
        <dc:format>image/svg+xml</dc:format>
        <dc:type
           rdf:resource="http://purl.org/dc/dcmitype/StillImage" />
        <dc:title />
      </cc:Work>
    </rdf:RDF>
  </metadata>
  <g
     inkscape:label="Layer 1"
     inkscape:groupmode="layer"
     id="layer1"
     transform="translate(0,10.629919)">
    <g
       transform="matrix(23.915425,0,0,23.915425,-31040.6,-25526.969)"
       id="g6172">
      <circle
         r="10.625"
         cy="3406.875"
         cx="1381.875"
         style="color:#000000;display:inline;overflow:visible;visibility:visible;fill:#008000;fill-opacity:1;fill-rule:nonzero;stroke:none;stroke-width:20.61962891;marker:none;enable-background:accumulate"
         id="path6174"
         transform="matrix(1.0588235,0,0,1.0588235,-144.03676,-2519.9797)" />
      <path
         style="color:#000000;font-style:normal;font-variant:normal;font-weight:normal;font-stretch:normal;font-size:medium;line-height:normal;font-family:Sans;-inkscape-font-specification:Sans;text-indent:0;text-align:start;text-decoration:none;text-decoration-line:none;letter-spacing:normal;word-spacing:normal;text-transform:none;direction:ltr;block-progression:tb;writing-mode:lr-tb;baseline-shift:baseline;text-anchor:start;display:inline;overflow:visible;visibility:visible;fill:#ffffff;fill-opacity:1;fill-rule:nonzero;stroke:none;stroke-width:0.5;marker:none;enable-background:accumulate"
         d="m 1331.8438,1073.2812 -0.063,0.031 c -11.045,8.8817 -18.9603,17.5213 -25.9374,31.4687 l -0.1876,0.375 0.4063,0 4.1875,0 0.1562,0 0.063,-0.1562 c 5.8376,-12.58 11.7287,-21.8809 28.7812,-31.25 l -0.125,-0.4688 -7.1875,0 -0.094,0 z m 0.1874,0.5 6.1876,0 c -16.4314,9.2272 -22.389,18.538 -28.125,30.875 l -3.625,0 c 6.8853,-13.6374 14.6856,-22.1189 25.5624,-30.875 z"
         id="path6176"
         inkscape:connector-curvature="0" />
      <path
         style="fill:#000000;stroke:none"
         d="m 1298.4375,1088.5497 c 0,0 7.3394,-3.1593 11.625,-3.8125 7.1522,-1.0902 13.7465,-1.0142 22.125,0.9375 3.8447,0.8956 9.625,2.4375 9.625,2.4375 l -1.6875,2.875 c 0,0 -6.6875,-1.875 -12.75,-3.375 -5.1311,-1.2695 -10.6735,-1.3482 -15.75,-0.5625 -4.4063,0.7635 -9.264,3.3123 -12.375,4.5625 z"
         id="path6178"
         inkscape:connector-curvature="0"
         sodipodi:nodetypes="cssccsccc" />
      <path
         style="color:#000000;font-style:normal;font-variant:normal;font-weight:normal;font-stretch:normal;font-size:medium;line-height:normal;font-family:Sans;-inkscape-font-specification:Sans;text-indent:0;text-align:start;text-decoration:none;text-decoration-line:none;letter-spacing:normal;word-spacing:normal;text-transform:none;direction:ltr;block-progression:tb;writing-mode:lr-tb;baseline-shift:baseline;text-anchor:start;display:inline;overflow:visible;visibility:visible;fill:#ffffff;fill-opacity:1;fill-rule:nonzero;stroke:none;stroke-width:0.5;marker:none;enable-background:accumulate"
         d="m 1320.6875,1083.8125 c -3.6071,-0.1273 -7.068,0.1405 -10.6563,0.6875 -4.3622,0.6649 -11.6874,3.8125 -11.6874,3.8125 l -0.2188,0.094 0.062,0.2188 0.8125,3.0625 0.094,0.25 0.25,-0.094 c 3.1365,-1.2605 7.9679,-3.8098 12.3124,-4.5626 5.0469,-0.7811 10.5636,-0.6974 15.6563,0.5626 6.057,1.4986 12.75,3.375 12.75,3.375 l 0.1875,0.062 0.094,-0.1562 1.6874,-2.875 0.1563,-0.2812 -0.3125,-0.094 c 0,0 -5.7725,-1.5401 -9.625,-2.4375 -4.2027,-0.979 -7.9554,-1.4977 -11.5625,-1.625 z m -0.031,0.5 c 3.5728,0.1261 7.293,0.621 11.4688,1.5937 3.7109,0.8645 8.9535,2.2482 9.3125,2.3438 l -1.4375,2.4375 c -0.1955,-0.055 -6.5852,-1.8336 -12.5625,-3.3125 -5.1695,-1.279 -10.7376,-1.3528 -15.8437,-0.5625 -4.3676,0.7568 -9.094,3.1688 -12.1876,4.4375 l -0.6562,-2.5625 c 0.3689,-0.1574 7.2453,-3.0941 11.3438,-3.7187 3.5639,-0.5433 6.9897,-0.7824 10.5624,-0.6563 z"
         id="path6180"
         inkscape:connector-curvature="0" />
      <path
         style="color:#000000;display:inline;overflow:visible;visibility:visible;fill:#000000;fill-opacity:1;fill-rule:nonzero;stroke:none;stroke-width:0.5;marker:none;enable-background:accumulate"
         d="m 1306.0625,1104.8935 c 6.9618,-13.9167 14.846,-22.5062 25.875,-31.375 l 7.1875,0 c -17.0927,9.3912 -23.0301,18.7794 -28.875,31.375 z"
         id="path6182"
         inkscape:connector-curvature="0"
         sodipodi:nodetypes="ccccc" />
      <path
         style="color:#000000;display:inline;overflow:visible;visibility:visible;fill:#000000;fill-opacity:1;fill-rule:nonzero;stroke:#ffffff;stroke-width:0.5;stroke-linecap:butt;stroke-linejoin:miter;stroke-miterlimit:4;stroke-dasharray:none;stroke-dashoffset:0;stroke-opacity:1;marker:none;enable-background:accumulate"
         d="m 1327.7188,1095.548 5.5937,9.3455 5,0 -8.4375,-12.0174 c -0.6302,1.0521 -1.276,1.8698 -2.1562,2.6719 z"
         id="path6184"
         inkscape:connector-curvature="0"
         sodipodi:nodetypes="ccccc" />
      <path
         style="color:#000000;display:inline;overflow:visible;visibility:visible;fill:#000000;fill-opacity:1;fill-rule:nonzero;stroke:#ffffff;stroke-width:0.5;stroke-linecap:butt;stroke-linejoin:miter;stroke-miterlimit:4;stroke-dasharray:none;stroke-dashoffset:0;stroke-opacity:1;marker:none;enable-background:accumulate"
         d="m 1311.5625,1078.2997 c 0.5833,-0.5937 1.401,-1.2656 2.2969,-1.6094 l -5.0469,-3.2656 -5.625,0.094 z"
         id="path6186"
         inkscape:connector-curvature="0"
         sodipodi:nodetypes="ccccc" />
    </g>
  </g>
</svg>
