<?xml version="1.0" encoding="UTF-8" standalone="no"?>
<!-- Created with Inkscape (http://www.inkscape.org/) -->

<svg
   xmlns:dc="http://purl.org/dc/elements/1.1/"
   xmlns:cc="http://creativecommons.org/ns#"
   xmlns:rdf="http://www.w3.org/1999/02/22-rdf-syntax-ns#"
   xmlns:svg="http://www.w3.org/2000/svg"
   xmlns="http://www.w3.org/2000/svg"
   xmlns:sodipodi="http://sodipodi.sourceforge.net/DTD/sodipodi-0.dtd"
   xmlns:inkscape="http://www.inkscape.org/namespaces/inkscape"
   width="300mm"
   height="300mm"
   viewBox="0 0 1062.992 1062.9921"
   id="svg4266"
   version="1.1"
   inkscape:version="0.91 r13725"
   sodipodi:docname="CESOL.svg">
  <defs
     id="defs4268" />
  <sodipodi:namedview
     id="base"
     pagecolor="#ffffff"
     bordercolor="#666666"
     borderopacity="1.0"
     inkscape:pageopacity="0.0"
     inkscape:pageshadow="2"
     inkscape:zoom="0.42869985"
     inkscape:cx="492.57105"
     inkscape:cy="563.71897"
     inkscape:document-units="px"
     inkscape:current-layer="layer1"
     showgrid="false"
     inkscape:window-width="1366"
     inkscape:window-height="744"
     inkscape:window-x="0"
     inkscape:window-y="24"
     inkscape:window-maximized="1"
     inkscape:snap-bbox="false"
     inkscape:bbox-paths="true"
     inkscape:bbox-nodes="true"
     inkscape:snap-bbox-edge-midpoints="true"
     inkscape:snap-bbox-midpoints="true"
     inkscape:object-paths="true"
     inkscape:object-nodes="true"
     inkscape:snap-intersection-paths="true"
     inkscape:snap-smooth-nodes="true"
     inkscape:snap-nodes="false" />
  <metadata
     id="metadata4271">
    <rdf:RDF>
      <cc:Work
         rdf:about="">
        <dc:format>image/svg+xml</dc:format>
        <dc:type
           rdf:resource="http://purl.org/dc/dcmitype/StillImage" />
        <dc:title />
      </cc:Work>
    </rdf:RDF>
  </metadata>
  <g
     inkscape:label="Layer 1"
     inkscape:groupmode="layer"
     id="layer1"
     transform="translate(0,10.629919)">
    <g
       id="g4287"
       transform="matrix(21.733884,0,0,21.733884,8762.2002,-13655.396)">
      <circle
         style="color:#000000;display:inline;overflow:visible;visibility:visible;fill:#ba0000;fill-opacity:1;fill-rule:nonzero;stroke:none;stroke-width:77.02251434;marker:none;enable-background:accumulate"
         id="path6128"
         cx="-378.63708"
         cy="635.60016"
         r="5.3853588" />
      <path
         inkscape:connector-curvature="0"
         style="color:#000000;display:inline;overflow:visible;visibility:visible;fill:#ba0000;fill-opacity:1;fill-rule:nonzero;stroke:none;stroke-width:85.46333313;marker:none;enable-background:accumulate"
         d="m -392.73759,662.58962 -1.38217,4.11366 c -2.13441,5.60745 3.99267,9.44162 8.52339,6.7134 l 3.38962,-2.63271 c -4.60019,-1.04255 -8.41846,-4.10986 -10.53084,-8.19435 z"
         id="path6130" />
      <path
         inkscape:connector-curvature="0"
         style="color:#000000;display:inline;overflow:visible;visibility:visible;fill:#002ec4;fill-opacity:1;fill-rule:nonzero;stroke:none;stroke-width:85.46333313;marker:none;enable-background:accumulate"
         d="m -378.71842,642.18613 c -2.58906,0 -4.97366,0.74948 -7.00958,2.04045 a 2.4749929,2.4749929 0 0 1 -0.0329,0.0653 c -1.11935,4.11314 0.41478,6.42718 3.35671,8.326 a 2.4749929,2.4749929 0 1 1 -2.69853,4.14651 c -2.52224,-1.62785 -4.55868,-4.11187 -5.42996,-7.14117 -0.8379,1.73138 -1.34926,3.67358 -1.34926,5.72604 0,7.27048 5.89315,13.16354 13.16354,13.16354 7.27039,0 13.16354,-5.89306 13.16354,-13.16354 0,-1.97422 -0.43895,-3.84786 -1.21763,-5.52869 -0.90489,2.93147 -2.90219,5.32186 -5.36414,6.91097 a 2.4749929,2.4749929 0 1 1 -2.66562,-4.14662 c 2.92621,-1.8885 4.40935,-4.15547 3.32379,-8.22711 -2.07668,-1.36964 -4.56604,-2.17209 -7.23994,-2.17209 z"
         id="path6132" />
      <path
         id="path6134"
         d="m -364.41332,662.58963 1.38217,4.11365 c 2.13441,5.60746 -3.99267,9.44163 -8.52339,6.71341 l -3.38962,-2.63271 c 4.60019,-1.04255 8.41846,-4.10987 10.53084,-8.19435 z"
         style="color:#000000;display:inline;overflow:visible;visibility:visible;fill:#ba0000;fill-opacity:1;fill-rule:nonzero;stroke:none;stroke-width:85.46333313;marker:none;enable-background:accumulate"
         inkscape:connector-curvature="0" />
      <path
         inkscape:connector-curvature="0"
         style="color:#000000;display:inline;overflow:visible;visibility:visible;fill:#ba0000;fill-opacity:1;fill-rule:nonzero;stroke:none;stroke-width:85.46333313;marker:none;enable-background:accumulate"
         d="m -367.61733,644.04483 4.33945,-0.0421 c 5.9927,-0.29497 7.74321,6.71772 3.74715,10.18215 l -3.55221,2.40872 c 0.43176,-4.69696 -1.3038,-9.27693 -4.53439,-12.54928 z"
         id="path6136" />
      <path
         id="path6138"
         d="m -389.83734,644.0006 -4.33965,0 c -5.99501,-0.24326 -7.6851,6.78417 -3.65936,10.21407 l 3.5728,2.37807 c -0.47218,-4.69317 1.22391,-9.28777 4.42621,-12.58782 z"
         style="color:#000000;display:inline;overflow:visible;visibility:visible;fill:#ba0000;fill-opacity:1;fill-rule:nonzero;stroke:none;stroke-width:85.46333313;marker:none;enable-background:accumulate"
         inkscape:connector-curvature="0" />
    </g>
  </g>
</svg>
