<?xml version="1.0" encoding="UTF-8" standalone="no"?>
<!-- Created with Inkscape (http://www.inkscape.org/) -->

<svg
   xmlns:dc="http://purl.org/dc/elements/1.1/"
   xmlns:cc="http://creativecommons.org/ns#"
   xmlns:rdf="http://www.w3.org/1999/02/22-rdf-syntax-ns#"
   xmlns:svg="http://www.w3.org/2000/svg"
   xmlns="http://www.w3.org/2000/svg"
   xmlns:sodipodi="http://sodipodi.sourceforge.net/DTD/sodipodi-0.dtd"
   xmlns:inkscape="http://www.inkscape.org/namespaces/inkscape"
   width="300mm"
   height="300mm"
   viewBox="0 0 1062.992 1062.9921"
   id="svg4266"
   version="1.1"
   inkscape:version="0.91 r13725"
   sodipodi:docname="genrep.svg">
  <defs
     id="defs4268" />
  <sodipodi:namedview
     id="base"
     pagecolor="#ffffff"
     bordercolor="#666666"
     borderopacity="1.0"
     inkscape:pageopacity="0.0"
     inkscape:pageshadow="2"
     inkscape:zoom="0.22627417"
     inkscape:cx="-293.90973"
     inkscape:cy="677.0188"
     inkscape:document-units="px"
     inkscape:current-layer="layer1"
     showgrid="false"
     inkscape:window-width="1366"
     inkscape:window-height="744"
     inkscape:window-x="0"
     inkscape:window-y="24"
     inkscape:window-maximized="1"
     inkscape:snap-bbox="false"
     inkscape:bbox-paths="true"
     inkscape:bbox-nodes="true"
     inkscape:snap-bbox-edge-midpoints="true"
     inkscape:snap-bbox-midpoints="true"
     inkscape:object-paths="true"
     inkscape:object-nodes="true"
     inkscape:snap-intersection-paths="true"
     inkscape:snap-smooth-nodes="true"
     inkscape:snap-nodes="false" />
  <metadata
     id="metadata4271">
    <rdf:RDF>
      <cc:Work
         rdf:about="">
        <dc:format>image/svg+xml</dc:format>
        <dc:type
           rdf:resource="http://purl.org/dc/dcmitype/StillImage" />
        <dc:title />
      </cc:Work>
    </rdf:RDF>
  </metadata>
  <g
     inkscape:label="Layer 1"
     inkscape:groupmode="layer"
     id="layer1"
     transform="translate(0,10.629919)">
    <path
       style="color:#000000;clip-rule:nonzero;display:inline;overflow:visible;visibility:visible;opacity:1;isolation:auto;mix-blend-mode:normal;color-interpolation:sRGB;color-interpolation-filters:linearRGB;solid-color:#000000;solid-opacity:1;fill:#ff5722;fill-opacity:1;fill-rule:nonzero;stroke:none;stroke-width:25;stroke-linecap:butt;stroke-linejoin:miter;stroke-miterlimit:4;stroke-dasharray:none;stroke-dashoffset:0;stroke-opacity:1;marker:none;color-rendering:auto;image-rendering:auto;shape-rendering:auto;text-rendering:auto;enable-background:accumulate"
       d="M 375.84961 37.248047 L 37.587891 375.50977 L 37.587891 1022.3105 L 64.990234 1022.4004 C 82.730552 959.93215 111.74885 886.18232 113.41211 839.79102 L 271.3125 759.83789 L 255.41992 743.94531 C 396.34943 542.63458 569.90106 370.26753 772.99805 224.38867 L 760.72461 212.11523 L 797.50977 175.33008 L 797.50977 37.248047 L 375.84961 37.248047 z M 797.50977 626.66602 C 733.48828 706.28559 676.01915 783.55984 632.15625 825.79492 C 606.06284 850.16999 581.38802 862.63349 550.48828 847.91016 L 531.02539 859.38281 C 500.47937 884.3398 469.19096 908.64523 437.12109 932.27148 L 419.2207 914.37305 L 413.35156 926.29883 L 383.9082 1023.4336 L 797.50977 1024.7754 L 797.50977 626.66602 z "
       transform="translate(-6.1035156e-5,-10.629919)"
       id="path4222" />
    <path
       sodipodi:nodetypes="cccc"
       inkscape:connector-curvature="0"
       id="path4224"
       d="m 375.8493,364.87931 0,-338.2615 -338.2615,338.2615 z"
       style="color:#000000;clip-rule:nonzero;display:inline;overflow:visible;visibility:visible;opacity:1;isolation:auto;mix-blend-mode:normal;color-interpolation:sRGB;color-interpolation-filters:linearRGB;solid-color:#000000;solid-opacity:1;fill:#ff8a65;fill-opacity:1;fill-rule:nonzero;stroke:none;stroke-width:20;stroke-linecap:butt;stroke-linejoin:miter;stroke-miterlimit:4;stroke-dasharray:none;stroke-dashoffset:0;stroke-opacity:1;marker:none;color-rendering:auto;image-rendering:auto;shape-rendering:auto;text-rendering:auto;enable-background:accumulate" />
    <path
       style="color:#000000;font-style:normal;font-variant:normal;font-weight:normal;font-stretch:normal;font-size:medium;line-height:normal;font-family:sans-serif;text-indent:0;text-align:start;text-decoration:none;text-decoration-line:none;text-decoration-style:solid;text-decoration-color:#000000;letter-spacing:normal;word-spacing:normal;text-transform:none;direction:ltr;block-progression:tb;writing-mode:lr-tb;baseline-shift:baseline;text-anchor:start;white-space:normal;clip-rule:nonzero;display:inline;overflow:visible;visibility:visible;opacity:1;isolation:auto;mix-blend-mode:normal;color-interpolation:sRGB;color-interpolation-filters:linearRGB;solid-color:#000000;solid-opacity:1;fill:#d5f6ff;fill-opacity:1;fill-rule:nonzero;stroke:none;stroke-width:23;stroke-linecap:square;stroke-linejoin:bevel;stroke-miterlimit:4;stroke-dasharray:none;stroke-dashoffset:0;stroke-opacity:1;marker:none;color-rendering:auto;image-rendering:auto;shape-rendering:auto;text-rendering:auto;enable-background:accumulate"
       d="M 127.20703 706.77148 L 127.20703 729.77148 L 138.70703 729.77148 L 265.43945 729.77148 C 270.93157 722.06332 276.46796 714.39394 282.05664 706.77148 L 138.70703 706.77148 L 127.20703 706.77148 z "
       transform="translate(-6.1035156e-5,-10.629919)"
       id="path4228" />
    <path
       style="color:#000000;font-style:normal;font-variant:normal;font-weight:normal;font-stretch:normal;font-size:medium;line-height:normal;font-family:sans-serif;text-indent:0;text-align:start;text-decoration:none;text-decoration-line:none;text-decoration-style:solid;text-decoration-color:#000000;letter-spacing:normal;word-spacing:normal;text-transform:none;direction:ltr;block-progression:tb;writing-mode:lr-tb;baseline-shift:baseline;text-anchor:start;white-space:normal;clip-rule:nonzero;display:inline;overflow:visible;visibility:visible;opacity:1;isolation:auto;mix-blend-mode:normal;color-interpolation:sRGB;color-interpolation-filters:linearRGB;solid-color:#000000;solid-opacity:1;fill:#d5f6ff;fill-opacity:1;fill-rule:nonzero;stroke:none;stroke-width:23;stroke-linecap:square;stroke-linejoin:bevel;stroke-miterlimit:4;stroke-dasharray:none;stroke-dashoffset:0;stroke-opacity:1;color-rendering:auto;image-rendering:auto;shape-rendering:auto;text-rendering:auto;enable-background:accumulate"
       d="M 127.20703 575.27148 L 127.20703 598.27148 L 138.70703 598.27148 L 367.25781 598.27148 C 373.73835 590.55601 380.27646 582.89067 386.86523 575.27148 L 138.70703 575.27148 L 127.20703 575.27148 z "
       transform="translate(-6.1035156e-5,-10.629919)"
       id="path4230" />
    <path
       style="color:#000000;clip-rule:nonzero;display:inline;overflow:visible;visibility:visible;opacity:1;isolation:auto;mix-blend-mode:normal;color-interpolation:sRGB;color-interpolation-filters:linearRGB;solid-color:#000000;solid-opacity:1;fill:#d84315;fill-opacity:0.61791047;fill-rule:nonzero;stroke:none;stroke-width:25;stroke-linecap:butt;stroke-linejoin:miter;stroke-miterlimit:4;stroke-dasharray:none;stroke-dashoffset:0;stroke-opacity:1;marker:none;color-rendering:auto;image-rendering:auto;shape-rendering:auto;text-rendering:auto;enable-background:accumulate"
       d="m 37.5878,364.87931 0,338.2615 338.2615,-338.2615 z"
       id="path4232"
       inkscape:connector-curvature="0"
       sodipodi:nodetypes="cccc" />
    <path
       style="color:#000000;clip-rule:nonzero;display:inline;overflow:visible;visibility:visible;opacity:1;isolation:auto;mix-blend-mode:normal;color-interpolation:sRGB;color-interpolation-filters:linearRGB;solid-color:#000000;solid-opacity:1;fill:#00bcd4;fill-opacity:1;fill-rule:nonzero;stroke:#00838f;stroke-width:14.24100018;stroke-linecap:butt;stroke-linejoin:miter;stroke-miterlimit:4;stroke-dasharray:none;stroke-dashoffset:0;stroke-opacity:1;marker:none;color-rendering:auto;image-rendering:auto;shape-rendering:auto;text-rendering:auto;enable-background:accumulate;filter-blend-mode:normal;filter-gaussianBlur-deviation:0"
       d="M 803.7742,263.06882 C 609.24275,401.75138 443.20797,565.9884 308.67217,758.17086 l 106.83517,106.83518 c 30.26674,-22.29843 59.79634,-45.23843 88.62491,-68.79281 -2.35886,-1.06155 -4.76009,-2.2579 -7.20957,-3.60581 -10.29726,-5.75561 -19.56308,-13.27377 -25.80734,-21.57211 -21.43323,-29.17116 -8.49224,-49.023 12.65297,-68.66188 27.40962,-25.31042 60.98351,-43.50749 88.91762,-64.78148 C 701.80976,538.95367 769.54445,435.15372 878.80348,338.0981 Z m 34.00391,199.19145 c -19.8677,21.67214 -39.30512,44.7078 -58.21013,68.19727 19.78889,-22.38331 39.1874,-45.11919 58.21013,-68.19727 z"
       id="rect4140"
       inkscape:connector-curvature="0"
       sodipodi:nodetypes="ccccccccccccc" />
    <path
       style="color:#000000;clip-rule:nonzero;display:inline;overflow:visible;visibility:visible;opacity:1;isolation:auto;mix-blend-mode:normal;color-interpolation:sRGB;color-interpolation-filters:linearRGB;solid-color:#000000;solid-opacity:1;fill:#de9b00;fill-opacity:1;fill-rule:nonzero;stroke:#a67300;stroke-width:14.24080086;stroke-linecap:round;stroke-linejoin:round;stroke-miterlimit:4;stroke-dasharray:none;stroke-dashoffset:0;stroke-opacity:1;marker:none;color-rendering:auto;image-rendering:auto;shape-rendering:auto;text-rendering:auto;enable-background:accumulate;filter-blend-mode:normal;filter-gaussianBlur-deviation:0"
       d="m 845.87098,202.77763 -36.27971,36.27972 104.16926,104.16926 C 778.29241,458.54192 708.95619,584.28419 529.65247,700.0797 c -23.44916,14.79275 -49.93448,37.74366 -27.83658,68.69442 4.73591,6.71222 12.18279,12.4781 20.68617,16.61182 29.16241,13.89584 52.4488,2.13354 77.07511,-20.87162 75.70922,-72.90136 194.33726,-256.41394 315.27626,-361.80651 43.47809,-33.01358 69.48107,-61.43327 38.06954,-92.87819 z"
       id="rect4158"
       inkscape:connector-curvature="0"
       sodipodi:nodetypes="cccccccccc" />
    <path
       inkscape:connector-curvature="0"
       style="color:#000000;clip-rule:nonzero;display:inline;overflow:visible;visibility:visible;opacity:1;isolation:auto;mix-blend-mode:normal;color-interpolation:sRGB;color-interpolation-filters:linearRGB;solid-color:#000000;solid-opacity:1;fill:#00bcd4;fill-opacity:1;fill-rule:nonzero;stroke:#00838f;stroke-width:14.24100018;stroke-linecap:butt;stroke-linejoin:miter;stroke-miterlimit:4;stroke-dasharray:none;stroke-dashoffset:0;stroke-opacity:1;marker:none;color-rendering:auto;image-rendering:auto;shape-rendering:auto;text-rendering:auto;enable-background:accumulate;filter-blend-mode:normal;filter-gaussianBlur-deviation:0"
       d="m 1005.0354,154.33999 c -1.4809,-1.48094 -3.0179,-2.8689 -4.6047,-4.16473 -1.5869,-1.29586 -3.22329,-2.49905 -4.90191,-3.60977 -1.67861,-1.11073 -3.39953,-2.12988 -5.15573,-3.05542 -1.75627,-0.92561 -3.54736,-1.758 -5.36714,-2.49847 -1.81978,-0.74047 -3.66805,-1.38875 -5.53727,-1.94413 -1.86919,-0.55535 -3.75972,-1.01756 -5.66421,-1.3878 -1.9045,-0.37024 -3.82364,-0.64838 -5.7493,-0.83349 -1.92567,-0.18511 -3.85777,-0.27782 -5.7905,-0.27782 -1.93274,0 -3.86616,0.0927 -5.79185,0.27782 -1.92566,0.18513 -3.84345,0.46326 -5.74796,0.83348 -1.90449,0.37025 -3.79502,0.83245 -5.66422,1.38781 -1.86921,0.55535 -3.71748,1.20364 -5.53727,1.94412 -1.81979,0.74048 -3.6115,1.57354 -5.36777,2.49913 -1.75627,0.92559 -3.47714,1.94339 -5.15576,3.0541 -1.67861,1.11072 -3.31434,2.3146 -4.90119,3.61042 -1.58682,1.29586 -3.12447,2.68445 -4.60543,4.16541 l -3.33259,3.3326 -42.77144,42.77143 42.77077,42.77077 7.77717,7.77716 42.77076,42.77077 42.77144,-42.77143 3.3326,-3.3326 c 1.481,-1.48096 2.8696,-3.01857 4.1654,-4.60539 1.2959,-1.58685 2.4997,-3.22258 3.6105,-4.9012 1.1107,-1.67861 2.1284,-3.39952 3.0541,-5.15575 0.9255,-1.75627 1.7586,-3.54801 2.4991,-5.3678 0.7404,-1.81979 1.3887,-3.66807 1.9441,-5.53727 0.5554,-1.86917 1.0176,-3.7597 1.3878,-5.66422 0.3702,-1.90448 0.6484,-3.82227 0.8335,-5.74797 0.1851,-1.92565 0.2778,-3.85908 0.2778,-5.79181 0,-1.93273 -0.093,-3.86483 -0.2778,-5.7905 -0.1851,-1.92569 -0.4633,-3.8448 -0.8335,-5.7493 -0.3702,-1.90449 -0.8324,-3.79502 -1.3878,-5.66424 -0.5554,-1.86919 -1.2036,-3.71746 -1.9441,-5.53724 -0.7405,-1.81982 -1.5729,-3.61087 -2.4985,-5.36714 -0.9256,-1.75623 -1.9447,-3.47715 -3.0554,-5.15573 -1.1107,-1.67862 -2.314,-3.31504 -3.6098,-4.90187 -1.2958,-1.58684 -2.6838,-3.1238 -4.1647,-4.60477 l -7.7772,-7.77716 z"
       id="path4198" />
    <path
       style="fill:#000000;fill-opacity:1;fill-rule:evenodd;stroke:none;stroke-width:0.50526232px;stroke-linecap:butt;stroke-linejoin:miter;stroke-opacity:1"
       d="m 304.93607,784.44877 -130.28632,64.18354 c -1.62492,45.3231 -30.91794,118.31428 -47.42791,178.52239 55.40994,-24.7931 125.96665,-51.89929 209.07344,-52.4271 l 36.96537,-121.95425 z"
       id="path4201"
       inkscape:connector-curvature="0"
       sodipodi:nodetypes="cccccc" />
    <path
       style="color:#000000;clip-rule:nonzero;display:inline;overflow:visible;visibility:visible;opacity:1;isolation:auto;mix-blend-mode:normal;color-interpolation:sRGB;color-interpolation-filters:linearRGB;solid-color:#000000;solid-opacity:1;fill:#ffffff;fill-opacity:1;fill-rule:nonzero;stroke:none;stroke-width:25;stroke-linecap:butt;stroke-linejoin:miter;stroke-miterlimit:4;stroke-dasharray:none;stroke-dashoffset:0;stroke-opacity:1;marker:none;color-rendering:auto;image-rendering:auto;shape-rendering:auto;text-rendering:auto;enable-background:accumulate"
       d="m 230.61664,918.46323 -3.86856,-7.59415 c -54.89077,31.38168 -85.98608,90.79692 -99.52624,116.28562 17.15863,-26.0504 52.50496,-89.18491 103.3948,-108.69147 z"
       id="rect4203"
       inkscape:connector-curvature="0"
       sodipodi:nodetypes="cccc" />
    <ellipse
       style="color:#000000;clip-rule:nonzero;display:inline;overflow:visible;visibility:visible;opacity:1;isolation:auto;mix-blend-mode:normal;color-interpolation:sRGB;color-interpolation-filters:linearRGB;solid-color:#000000;solid-opacity:1;fill:#ffffff;fill-opacity:1;fill-rule:nonzero;stroke:none;stroke-width:25;stroke-linecap:butt;stroke-linejoin:miter;stroke-miterlimit:4;stroke-dasharray:none;stroke-dashoffset:0;stroke-opacity:1;marker:none;color-rendering:auto;image-rendering:auto;shape-rendering:auto;text-rendering:auto;enable-background:accumulate"
       id="path4206"
       cx="811.82361"
       cy="482.35791"
       rx="13.886806"
       ry="13.71322"
       transform="matrix(0.70710678,0.70710678,-0.70710678,0.70710678,0,0)" />
  </g>
</svg>
