<?xml version="1.0" encoding="UTF-8" standalone="no"?>
<!-- Created with Inkscape (http://www.inkscape.org/) -->

<svg
   xmlns:dc="http://purl.org/dc/elements/1.1/"
   xmlns:cc="http://creativecommons.org/ns#"
   xmlns:rdf="http://www.w3.org/1999/02/22-rdf-syntax-ns#"
   xmlns:svg="http://www.w3.org/2000/svg"
   xmlns="http://www.w3.org/2000/svg"
   xmlns:sodipodi="http://sodipodi.sourceforge.net/DTD/sodipodi-0.dtd"
   xmlns:inkscape="http://www.inkscape.org/namespaces/inkscape"
   width="300mm"
   height="300mm"
   viewBox="0 0 1062.992 1062.9921"
   id="svg4266"
   version="1.1"
   inkscape:version="0.91 r13725"
   sodipodi:docname="UCI.svg">
  <defs
     id="defs4268" />
  <sodipodi:namedview
     id="base"
     pagecolor="#ffffff"
     bordercolor="#666666"
     borderopacity="1.0"
     inkscape:pageopacity="0.0"
     inkscape:pageshadow="2"
     inkscape:zoom="0.22627417"
     inkscape:cx="-57.945054"
     inkscape:cy="662.7252"
     inkscape:document-units="px"
     inkscape:current-layer="layer1"
     showgrid="false"
     inkscape:window-width="1366"
     inkscape:window-height="744"
     inkscape:window-x="0"
     inkscape:window-y="24"
     inkscape:window-maximized="1"
     inkscape:snap-bbox="false"
     inkscape:bbox-paths="true"
     inkscape:bbox-nodes="true"
     inkscape:snap-bbox-edge-midpoints="true"
     inkscape:snap-bbox-midpoints="true"
     inkscape:object-paths="true"
     inkscape:object-nodes="true"
     inkscape:snap-intersection-paths="true"
     inkscape:snap-smooth-nodes="true"
     inkscape:snap-nodes="false" />
  <metadata
     id="metadata4271">
    <rdf:RDF>
      <cc:Work
         rdf:about="">
        <dc:format>image/svg+xml</dc:format>
        <dc:type
           rdf:resource="http://purl.org/dc/dcmitype/StillImage" />
        <dc:title />
      </cc:Work>
    </rdf:RDF>
  </metadata>
  <g
     inkscape:label="Layer 1"
     inkscape:groupmode="layer"
     id="layer1"
     transform="translate(0,10.629919)">
    <g
       id="g4192"
       transform="matrix(1.9427935,0,0,1.9427935,-266.97668,-519.09242)">
      <path
         style="color:#000000;display:inline;overflow:visible;visibility:visible;fill:#003380;fill-opacity:1;fill-rule:nonzero;stroke:none;marker:none;enable-background:accumulate"
         d="M 658.46111,496.79701 C 672.86122,346.12808 516.14218,361.68217 385.51434,401.25226 338.23256,415.57538 245.41742,460.31107 148.48772,555.94803 320.47257,312.30103 759.9745,281.10243 658.46111,496.79701 Z"
         id="path6142"
         inkscape:connector-curvature="0"
         sodipodi:nodetypes="cscc" />
      <path
         inkscape:connector-curvature="0"
         id="path6144"
         style="font-style:normal;font-variant:normal;font-weight:bold;font-stretch:normal;font-size:33.49711227px;line-height:125%;font-family:'Source Sans Pro';-inkscape-font-specification:'Source Sans Pro Bold';text-align:start;letter-spacing:0px;word-spacing:0px;writing-mode:lr-tb;text-anchor:start;fill:#003380;fill-opacity:1;stroke:none"
         d="m 215.25284,623.95838 c 0.0895,32.65517 6.74124,56.55837 19.97932,71.7087 13.23897,15.15033 32.56833,22.63463 57.98987,22.45289 25.39558,0.17905 44.62557,-7.30256 57.68907,-22.45289 13.0635,-15.15033 19.62301,-39.05353 19.67941,-71.7087 l 0,-104.95832 -42.58261,0 0,109.45606 c -0.0895,18.94261 -3.14233,32.33736 -9.18438,40.18423 -6.04115,7.84688 -14.57468,11.64542 -25.60149,11.39565 -10.9901,0.25067 -19.37412,-3.54877 -25.15297,-11.39565 -5.77884,-7.84687 -8.6902,-21.24162 -8.73407,-40.18423 l 0,-109.45606 -44.08215,0 z" />
      <path
         inkscape:connector-curvature="0"
         id="path6146"
         style="color:#000000;font-style:normal;font-variant:normal;font-weight:bold;font-stretch:normal;font-size:33.49711227px;line-height:125%;font-family:'Source Sans Pro';-inkscape-font-specification:'Source Sans Pro Bold';text-align:start;letter-spacing:0px;word-spacing:0px;writing-mode:lr-tb;text-anchor:start;display:inline;overflow:visible;visibility:visible;fill:#003380;fill-opacity:1;fill-rule:nonzero;stroke:none;marker:none;enable-background:accumulate"
         d="m 405.41218,617.9602 c 0.67144,32.90584 9.67677,57.80814 27.02673,74.70779 17.34907,16.89965 39.02757,22.71878 65.0364,22.78682 25.0142,-0.6983 61.81707,0 61.81707,0 l 0,-39.58083 c 0,0 -46.77328,0 -61.21725,0 -14.43951,0 -25.89603,-1.54879 -34.37406,-12.55679 -8.47802,-11.00801 -12.81372,-26.62655 -13.0071,-46.85564 0.32229,-19.81101 5.00356,-35.21738 14.05634,-46.21912 9.05277,-11.00174 20.56033,-13.83699 34.52356,-14.0053 13.76895,0 60.01851,0 60.01851,0 l 0,-37.48237 c 0,0 -39.90491,0.51925 -60.61833,0 -25.92647,0.22382 -47.7679,5.86837 -65.52341,23.63642 -17.75551,17.76804 -27.00166,42.95772 -27.73846,75.56902 z"
         sodipodi:nodetypes="cccccsscsccccsc" />
      <path
         style="color:#000000;font-style:normal;font-variant:normal;font-weight:bold;font-stretch:normal;font-size:33.49711227px;line-height:125%;font-family:'Source Sans Pro';-inkscape-font-specification:'Source Sans Pro Bold';text-align:start;letter-spacing:0px;word-spacing:0px;writing-mode:lr-tb;text-anchor:start;display:inline;overflow:visible;visibility:visible;fill:#003380;fill-opacity:1;fill-rule:nonzero;stroke:none;marker:none;enable-background:accumulate"
         d="m 597.84278,579.28805 0,135.12737 44.20301,0 0,-135.12737 -44.20301,0 z"
         id="path6148"
         inkscape:connector-curvature="0" />
      <g
         id="g6150"
         transform="matrix(11.154432,0,0,11.154432,-12693.481,-10732.791)">
        <rect
           y="1009.432"
           x="1191.9525"
           height="3.2198613"
           width="3.2198613"
           id="rect6152"
           style="color:#000000;display:inline;overflow:visible;visibility:visible;fill:#003380;fill-opacity:1;fill-rule:nonzero;stroke:none;stroke-width:4.69999981;marker:none;enable-background:accumulate" />
        <path
           inkscape:connector-curvature="0"
           id="path6154"
           d="m 1191.5312,1008.6278 0.5313,0.5625 1.5,0 1.5,0 0.5313,-0.5625 -2.0313,0 -2.0313,0 z"
           style="color:#000000;display:inline;overflow:visible;visibility:visible;fill:#003380;fill-opacity:1;fill-rule:nonzero;stroke:none;marker:none;enable-background:accumulate" />
        <path
           style="color:#000000;display:inline;overflow:visible;visibility:visible;fill:#003380;fill-opacity:1;fill-rule:nonzero;stroke:none;marker:none;enable-background:accumulate"
           d="m 1195.9688,1009.0106 -0.5625,0.5314 0,1.5 0,1.5 0.5625,0.5313 0,-2.0313 0,-2.0314 z"
           id="path6156"
           inkscape:connector-curvature="0" />
        <path
           style="color:#000000;display:inline;overflow:visible;visibility:visible;fill:#003380;fill-opacity:1;fill-rule:nonzero;stroke:none;marker:none;enable-background:accumulate"
           d="m 1191.5312,1013.4559 0.5313,-0.5625 1.5,0 1.5,0 0.5313,0.5625 -2.0313,0 -2.0313,0 z"
           id="path6158"
           inkscape:connector-curvature="0" />
        <path
           inkscape:connector-curvature="0"
           id="path6160"
           d="m 1191.1407,1013.0733 0.5625,-0.5314 0,-1.5 0,-1.5 -0.5625,-0.5313 0,2.0313 0,2.0314 z"
           style="color:#000000;display:inline;overflow:visible;visibility:visible;fill:#003380;fill-opacity:1;fill-rule:nonzero;stroke:none;marker:none;enable-background:accumulate" />
      </g>
    </g>
  </g>
</svg>
