<?xml version="1.0" encoding="UTF-8" standalone="no"?>
<svg
   xmlns:dc="http://purl.org/dc/elements/1.1/"
   xmlns:cc="http://creativecommons.org/ns#"
   xmlns:rdf="http://www.w3.org/1999/02/22-rdf-syntax-ns#"
   xmlns:svg="http://www.w3.org/2000/svg"
   xmlns="http://www.w3.org/2000/svg"
   xmlns:sodipodi="http://sodipodi.sourceforge.net/DTD/sodipodi-0.dtd"
   xmlns:inkscape="http://www.inkscape.org/namespaces/inkscape"
   version="1.1"
   width="48"
   height="48"
   viewBox="0 0 48 48"
   id="svg2"
   inkscape:version="0.91 r13725"
   sodipodi:docname="information.svg">
  <metadata
     id="metadata10">
    <rdf:RDF>
      <cc:Work
         rdf:about="">
        <dc:format>image/svg+xml</dc:format>
        <dc:type
           rdf:resource="http://purl.org/dc/dcmitype/StillImage" />
        <dc:title></dc:title>
      </cc:Work>
    </rdf:RDF>
  </metadata>
  <defs
     id="defs8" />
  <sodipodi:namedview
     pagecolor="#ffffff"
     bordercolor="#666666"
     borderopacity="1"
     objecttolerance="10"
     gridtolerance="10"
     guidetolerance="10"
     inkscape:pageopacity="0"
     inkscape:pageshadow="2"
     inkscape:window-width="1366"
     inkscape:window-height="744"
     id="namedview6"
     showgrid="false"
     inkscape:zoom="4.9166667"
     inkscape:cx="57.478956"
     inkscape:cy="36.366996"
     inkscape:window-x="0"
     inkscape:window-y="24"
     inkscape:window-maximized="1"
     inkscape:current-layer="svg2" />
  <g
     id="g4134"
     transform="matrix(2.2,0,0,2.2,-2.4,-2.4)">
    <path
       style="color:#000000;clip-rule:nonzero;display:inline;overflow:visible;visibility:visible;opacity:1;isolation:auto;mix-blend-mode:normal;color-interpolation:sRGB;color-interpolation-filters:linearRGB;solid-color:#000000;solid-opacity:1;fill:#2196f3;fill-opacity:1;fill-rule:nonzero;stroke-width:1;stroke-linecap:butt;stroke-linejoin:miter;stroke-miterlimit:4;stroke-dasharray:none;stroke-dashoffset:0;stroke-opacity:1;color-rendering:auto;image-rendering:auto;shape-rendering:auto;text-rendering:auto;enable-background:accumulate"
       id="path4142"
       d="M 9,22 A 1,1 0 0 1 8,21 L 8,18 4,18 A 2,2 0 0 1 2,16 L 2,4 C 2,2.89 2.9,2 4,2 l 16,0 a 2,2 0 0 1 2,2 l 0,12 a 2,2 0 0 1 -2,2 l -6.1,0 -3.7,3.71 C 10,21.9 9.75,22 9.5,22 l 0,0 -0.5,0"
       inkscape:connector-curvature="0" />
    <path
       style="fill:#ffffff;fill-opacity:1"
       id="path4-3"
       d="M 13.159992,4.5821727 A 1.0155652,1.0155652 0 0 0 12.144427,5.597738 1.0155652,1.0155652 0 0 0 13.159992,6.6133032 1.0155652,1.0155652 0 0 0 14.175558,5.597738 1.0155652,1.0155652 0 0 0 13.159992,4.5821727 m -0.243736,3.2294974 c -0.805682,0.067705 -3.0060726,1.821247 -3.0060726,1.821247 -0.1354086,0.1015565 -0.094786,0.094786 0.013541,0.2843583 0.1083276,0.1828026 0.094786,0.1963426 0.2234246,0.1083266 0.135409,-0.088015 0.358834,-0.2301944 0.731207,-0.4603892 1.435332,-0.9207791 0.230195,1.2051382 -0.385915,4.7866972 -0.243735,1.773854 1.354088,0.859845 1.767084,0.589028 0.406226,-0.264047 1.496266,-1.015565 1.604593,-1.09004 0.148949,-0.101556 0.04062,-0.182801 -0.07448,-0.352063 -0.08124,-0.115097 -0.162491,-0.03385 -0.162491,-0.03385 -0.440078,0.291129 -1.24576,0.900468 -1.354087,0.514553 -0.128638,-0.385914 0.697355,-3.033154 1.150974,-4.8544014 0.07448,-0.4333078 0.277588,-1.3811687 -0.507783,-1.3134644 z"
       inkscape:connector-curvature="0" />
  </g>
</svg>
