<?xml version="1.0" encoding="UTF-8" standalone="no"?>
<svg
   xmlns:dc="http://purl.org/dc/elements/1.1/"
   xmlns:cc="http://creativecommons.org/ns#"
   xmlns:rdf="http://www.w3.org/1999/02/22-rdf-syntax-ns#"
   xmlns:svg="http://www.w3.org/2000/svg"
   xmlns="http://www.w3.org/2000/svg"
   xmlns:sodipodi="http://sodipodi.sourceforge.net/DTD/sodipodi-0.dtd"
   xmlns:inkscape="http://www.inkscape.org/namespaces/inkscape"
   version="1.1"
   width="24"
   height="24"
   viewBox="0 0 24 24"
   id="svg2"
   inkscape:version="0.91 r13725"
   sodipodi:docname="open_recent.svg">
  <metadata
     id="metadata10">
    <rdf:RDF>
      <cc:Work
         rdf:about="">
        <dc:format>image/svg+xml</dc:format>
        <dc:type
           rdf:resource="http://purl.org/dc/dcmitype/StillImage" />
        <dc:title />
      </cc:Work>
    </rdf:RDF>
  </metadata>
  <defs
     id="defs8" />
  <sodipodi:namedview
     pagecolor="#ffffff"
     bordercolor="#666666"
     borderopacity="1"
     objecttolerance="10"
     gridtolerance="10"
     guidetolerance="10"
     inkscape:pageopacity="0"
     inkscape:pageshadow="2"
     inkscape:window-width="1366"
     inkscape:window-height="744"
     id="namedview6"
     showgrid="false"
     inkscape:zoom="19.666667"
     inkscape:cx="13.041665"
     inkscape:cy="8.0882401"
     inkscape:window-x="0"
     inkscape:window-y="24"
     inkscape:window-maximized="1"
     inkscape:current-layer="svg2"
     showguides="true"
     inkscape:guide-bbox="true"
     inkscape:snap-bbox="false"
     inkscape:bbox-paths="true"
     inkscape:bbox-nodes="true"
     inkscape:snap-bbox-edge-midpoints="true"
     inkscape:snap-bbox-midpoints="true">
    <sodipodi:guide
       position="22,10.576271"
       orientation="1,0"
       id="guide4168" />
    <sodipodi:guide
       position="9.3559322,4"
       orientation="0,1"
       id="guide4170" />
  </sodipodi:namedview>
  <g
     id="g4136">
    <path
       style="fill:#343434;fill-opacity:1"
       inkscape:connector-curvature="0"
       id="path4206"
       d="m 16.906554,9.8644071 a 5.043077,5.043077 0 0 0 -5.042599,5.0442589 c 0,2.773693 2.253777,5.042599 5.042599,5.042599 a 5.043077,5.043077 0 0 0 5.042599,-5.042599 5.043077,5.043077 0 0 0 -5.042599,-5.0442589 z m 0,1.0095169 a 4.0344616,4.0344616 0 0 1 4.034744,4.034742 4.0344616,4.0344616 0 0 1 -4.034744,4.033082 4.0344616,4.0344616 0 0 1 -4.034744,-4.033082 4.0344616,4.0344616 0 0 1 4.034744,-4.034742 z m -1.512613,1.726802 0,3.025229 2.646658,1.58899 0.378569,-0.620985 -2.269751,-1.344914 0,-2.64832 -0.755476,0 z" />
    <path
       style="fill:#343434;fill-opacity:1"
       id="path4"
       d="M 3.7460938 4 C 2.7771953 4 2 4.7771954 2 5.7460938 L 2 16.220703 A 1.7457627 1.7457628 0 0 0 3.7460938 17.966797 L 11.712891 17.966797 A 6.0349555 6.0349555 0 0 1 11.023438 16.220703 L 3.7460938 16.220703 L 3.7460938 7.4921875 L 17.710938 7.4921875 L 17.710938 8.9335938 A 6.0349555 6.0349555 0 0 1 19.457031 9.4453125 L 19.457031 7.4921875 C 19.457031 6.5232892 18.671107 5.7460937 17.710938 5.7460938 L 10.728516 5.7460938 L 8.9824219 4 L 3.7460938 4 z " />
  </g>
</svg>
