<?xml version="1.0" encoding="UTF-8" standalone="no"?>
<svg
   xmlns:dc="http://purl.org/dc/elements/1.1/"
   xmlns:cc="http://creativecommons.org/ns#"
   xmlns:rdf="http://www.w3.org/1999/02/22-rdf-syntax-ns#"
   xmlns:svg="http://www.w3.org/2000/svg"
   xmlns="http://www.w3.org/2000/svg"
   xmlns:sodipodi="http://sodipodi.sourceforge.net/DTD/sodipodi-0.dtd"
   xmlns:inkscape="http://www.inkscape.org/namespaces/inkscape"
   version="1.1"
   width="48"
   height="48"
   viewBox="0 0 48 48"
   id="svg2"
   inkscape:version="0.91 r13725"
   sodipodi:docname="question.svg">
  <metadata
     id="metadata10">
    <rdf:RDF>
      <cc:Work
         rdf:about="">
        <dc:format>image/svg+xml</dc:format>
        <dc:type
           rdf:resource="http://purl.org/dc/dcmitype/StillImage" />
        <dc:title />
      </cc:Work>
    </rdf:RDF>
  </metadata>
  <defs
     id="defs8" />
  <sodipodi:namedview
     pagecolor="#ffffff"
     bordercolor="#666666"
     borderopacity="1"
     objecttolerance="10"
     gridtolerance="10"
     guidetolerance="10"
     inkscape:pageopacity="0"
     inkscape:pageshadow="2"
     inkscape:window-width="1366"
     inkscape:window-height="744"
     id="namedview6"
     showgrid="false"
     inkscape:zoom="1.2291667"
     inkscape:cx="12.727651"
     inkscape:cy="-10.239135"
     inkscape:window-x="0"
     inkscape:window-y="24"
     inkscape:window-maximized="1"
     inkscape:current-layer="svg2" />
  <path
     inkscape:connector-curvature="0"
     d="m 17.4,46 a 2.2,2.2 0 0 1 -2.2,-2.2 l 0,-6.6 -8.8,0 A 4.4,4.4 0 0 1 2,32.8 L 2,6.4 C 2,3.9579998 3.98,1.9999998 6.4,1.9999998 l 35.2,0 A 4.4,4.4 0 0 1 46,6.4 l 0,26.4 a 4.4,4.4 0 0 1 -4.4,4.4 l -13.42,0 -8.14,8.162 C 19.6,45.78 19.05,46 18.5,46 l 0,0 -1.1,0"
     id="path4142"
     style="color:#000000;clip-rule:nonzero;display:inline;overflow:visible;visibility:visible;opacity:1;isolation:auto;mix-blend-mode:normal;color-interpolation:sRGB;color-interpolation-filters:linearRGB;solid-color:#000000;solid-opacity:1;fill:#ffeb3b;fill-opacity:1;fill-rule:nonzero;stroke-width:1;stroke-linecap:butt;stroke-linejoin:miter;stroke-miterlimit:4;stroke-dasharray:none;stroke-dashoffset:0;stroke-opacity:1;color-rendering:auto;image-rendering:auto;shape-rendering:auto;text-rendering:auto;enable-background:accumulate" />
  <g
     id="g4168"
     transform="matrix(2.1254237,0,0,2.1254237,-51.86682,29.110369)"
     style="fill:#ffffff;fill-opacity:1">
    <path
       id="path4166"
       d="m 34.694915,1.5254237 2,0 0,-1.99999998 -2,0 0,1.99999998"
       inkscape:connector-curvature="0"
       style="fill:#ffffff;fill-opacity:1" />
    <path
       id="path4"
       d="m 35.694915,-10.474576 a 4,4 0 0 0 -4,3.9999997 l 2,0 a 2,2 0 0 1 2,-1.9999995 2,2 0 0 1 2,1.9999995 c 0,2 -3,1.75 -3,5 l 2,0 c 0,-2.25 3,-2.5 3,-5 a 4,4 0 0 0 -4,-3.9999997 z"
       inkscape:connector-curvature="0"
       style="fill:#ffffff;fill-opacity:1" />
  </g>
</svg>
