<?xml version="1.0" encoding="UTF-8" standalone="no"?>
<svg
   xmlns:dc="http://purl.org/dc/elements/1.1/"
   xmlns:cc="http://creativecommons.org/ns#"
   xmlns:rdf="http://www.w3.org/1999/02/22-rdf-syntax-ns#"
   xmlns:svg="http://www.w3.org/2000/svg"
   xmlns="http://www.w3.org/2000/svg"
   xmlns:sodipodi="http://sodipodi.sourceforge.net/DTD/sodipodi-0.dtd"
   xmlns:inkscape="http://www.inkscape.org/namespaces/inkscape"
   version="1.1"
   width="24"
   height="24"
   viewBox="0 0 24 24"
   id="svg2"
   inkscape:version="0.91 r13725"
   sodipodi:docname="save_plot.svg">
  <metadata
     id="metadata10">
    <rdf:RDF>
      <cc:Work
         rdf:about="">
        <dc:format>image/svg+xml</dc:format>
        <dc:type
           rdf:resource="http://purl.org/dc/dcmitype/StillImage" />
        <dc:title></dc:title>
      </cc:Work>
    </rdf:RDF>
  </metadata>
  <defs
     id="defs8" />
  <sodipodi:namedview
     pagecolor="#ffffff"
     bordercolor="#666666"
     borderopacity="1"
     objecttolerance="10"
     gridtolerance="10"
     guidetolerance="10"
     inkscape:pageopacity="0"
     inkscape:pageshadow="2"
     inkscape:window-width="1366"
     inkscape:window-height="744"
     id="namedview6"
     showgrid="false"
     inkscape:zoom="11.313709"
     inkscape:cx="7.7609279"
     inkscape:cy="18.03689"
     inkscape:window-x="0"
     inkscape:window-y="24"
     inkscape:window-maximized="1"
     inkscape:current-layer="svg2"
     inkscape:snap-bbox="false"
     inkscape:bbox-nodes="true"
     inkscape:bbox-paths="true"
     inkscape:snap-bbox-edge-midpoints="true"
     inkscape:snap-bbox-midpoints="true" />
  <g
     id="g4243"
     transform="translate(0.6629126,0)">
    <path
       inkscape:connector-curvature="0"
       id="rect4166"
       d="M 3.7601945,3 C 2.6048966,3 1.6741748,3.8539995 1.6741748,4.9140625 l 0,11.8066405 c 0,1.060063 0.9307218,1.914063 2.0860197,1.914063 l 9.9618095,0 -0.193703,-0.179688 -1.111125,-1.019531 -0.0021,0 -0.753522,-0.693359 1.111125,0 0.75565,0 1.573029,0 0,-2.84961 2.656482,0 0,-8.9785155 C 17.757812,3.8539995 16.829219,3 15.673921,3 L 3.7601945,3 Z m 0.766293,1.0292969 10.2363975,0 c 0.992691,0 1.790145,0.7336695 1.790145,1.6445312 l 0,7.1562499 -1.251612,0 0,-3.205078 -2.724598,0 0,3.205078 -1.498528,0 0,-5.173828 -2.724597,0 0,5.173828 -1.4985284,0 0,-7.236328 -2.7245972,0 0,7.236328 -1.3963561,0 0,-7.1562499 c 2e-7,-0.9108617 0.7995817,-1.6445312 1.7922742,-1.6445312 z"
       style="color:#000000;clip-rule:nonzero;display:inline;overflow:visible;visibility:visible;opacity:1;isolation:auto;mix-blend-mode:normal;color-interpolation:sRGB;color-interpolation-filters:linearRGB;solid-color:#000000;solid-opacity:1;fill:#343434;fill-opacity:1;fill-rule:nonzero;stroke:none;stroke-width:1;stroke-linecap:butt;stroke-linejoin:miter;stroke-miterlimit:4;stroke-dasharray:none;stroke-dashoffset:0;stroke-opacity:1;marker:none;color-rendering:auto;image-rendering:auto;shape-rendering:auto;text-rendering:auto;enable-background:accumulate" />
    <path
       inkscape:connector-curvature="0"
       id="path4164"
       d="m 17.438183,21 -3.561817,-3.561817 2.13709,0 0,-2.849453 2.849454,0 0,2.849453 2.13709,0 L 17.438183,21"
       style="fill:#343434;fill-opacity:1" />
  </g>
</svg>
