<?xml version="1.0" encoding="UTF-8" standalone="no"?>
<svg
   xmlns:dc="http://purl.org/dc/elements/1.1/"
   xmlns:cc="http://creativecommons.org/ns#"
   xmlns:rdf="http://www.w3.org/1999/02/22-rdf-syntax-ns#"
   xmlns:svg="http://www.w3.org/2000/svg"
   xmlns="http://www.w3.org/2000/svg"
   xmlns:sodipodi="http://sodipodi.sourceforge.net/DTD/sodipodi-0.dtd"
   xmlns:inkscape="http://www.inkscape.org/namespaces/inkscape"
   version="1.1"
   width="24"
   height="24"
   viewBox="0 0 24 24"
   id="svg2"
   inkscape:version="0.91 r13725"
   sodipodi:docname="select_row.svg">
  <metadata
     id="metadata10">
    <rdf:RDF>
      <cc:Work
         rdf:about="">
        <dc:format>image/svg+xml</dc:format>
        <dc:type
           rdf:resource="http://purl.org/dc/dcmitype/StillImage" />
        <dc:title></dc:title>
      </cc:Work>
    </rdf:RDF>
  </metadata>
  <defs
     id="defs8" />
  <sodipodi:namedview
     pagecolor="#ffffff"
     bordercolor="#666666"
     borderopacity="1"
     objecttolerance="10"
     gridtolerance="10"
     guidetolerance="10"
     inkscape:pageopacity="0"
     inkscape:pageshadow="2"
     inkscape:window-width="1366"
     inkscape:window-height="744"
     id="namedview6"
     showgrid="false"
     inkscape:zoom="0.61458333"
     inkscape:cx="-201.12365"
     inkscape:cy="42.28063"
     inkscape:window-x="0"
     inkscape:window-y="24"
     inkscape:window-maximized="1"
     inkscape:current-layer="svg2"
     inkscape:snap-bbox="true"
     inkscape:bbox-paths="true"
     inkscape:bbox-nodes="true"
     inkscape:snap-bbox-edge-midpoints="true"
     inkscape:snap-bbox-midpoints="true" />
  <path
     style="fill:#343434;fill-opacity:1"
     d="m 3,3.5 18,0 a 2,2 0 0 1 2,2 l 0,13 a 2,2 0 0 1 -2,2 l -18,0 a 2,2 0 0 1 -2,-2 l 0,-13 a 2,2 0 0 1 2,-2"
     id="path4154"
     inkscape:connector-curvature="0" />
  <path
     style="fill:#ffffff;fill-opacity:1"
     d="m 2.96875,5.5 0,3 4.6972656,0 0,-3 -4.6972656,0 z"
     id="path4242" />
  <path
     style="fill:#ffffff;fill-opacity:1"
     d="m 9.6660156,5.5 0,3 4.6679684,0 0,-3 -4.6679684,0 z"
     id="path4240" />
  <path
     style="fill:#ffffff;fill-opacity:1"
     d="m 16.333984,5.5 0,3 4.697266,0 0,-3 -4.697266,0 z"
     id="path4238" />
  <path
     style="fill:#080808;fill-opacity:1;color:#000000;clip-rule:nonzero;display:inline;overflow:visible;visibility:visible;opacity:1;isolation:auto;mix-blend-mode:normal;color-interpolation:sRGB;color-interpolation-filters:linearRGB;solid-color:#000000;solid-opacity:1;fill-rule:nonzero;stroke-width:1;stroke-linecap:butt;stroke-linejoin:miter;stroke-miterlimit:4;stroke-dasharray:none;stroke-dashoffset:0;stroke-opacity:1;filter-blend-mode:normal;filter-gaussianBlur-deviation:0;color-rendering:auto;image-rendering:auto;shape-rendering:auto;text-rendering:auto;enable-background:accumulate"
     d="m 2.96875,10.5 0,3 4.6972656,0 0,-3 -4.6972656,0 z"
     id="path4236" />
  <path
     style="fill:#080808;fill-opacity:1;color:#000000;clip-rule:nonzero;display:inline;overflow:visible;visibility:visible;opacity:1;isolation:auto;mix-blend-mode:normal;color-interpolation:sRGB;color-interpolation-filters:linearRGB;solid-color:#000000;solid-opacity:1;fill-rule:nonzero;stroke-width:1;stroke-linecap:butt;stroke-linejoin:miter;stroke-miterlimit:4;stroke-dasharray:none;stroke-dashoffset:0;stroke-opacity:1;filter-blend-mode:normal;filter-gaussianBlur-deviation:0;color-rendering:auto;image-rendering:auto;shape-rendering:auto;text-rendering:auto;enable-background:accumulate"
     d="m 9.6660156,10.5 0,3 4.6679684,0 0,-3 -4.6679684,0 z"
     id="path4234" />
  <path
     style="fill:#080808;fill-opacity:1;color:#000000;clip-rule:nonzero;display:inline;overflow:visible;visibility:visible;opacity:1;isolation:auto;mix-blend-mode:normal;color-interpolation:sRGB;color-interpolation-filters:linearRGB;solid-color:#000000;solid-opacity:1;fill-rule:nonzero;stroke-width:1;stroke-linecap:butt;stroke-linejoin:miter;stroke-miterlimit:4;stroke-dasharray:none;stroke-dashoffset:0;stroke-opacity:1;filter-blend-mode:normal;filter-gaussianBlur-deviation:0;color-rendering:auto;image-rendering:auto;shape-rendering:auto;text-rendering:auto;enable-background:accumulate"
     d="m 16.333984,10.5 0,3 4.697266,0 0,-3 -4.697266,0 z"
     id="path4203" />
  <path
     style="fill:#ffffff;fill-opacity:1"
     d="m 2.96875,15.5 0,3 4.6972656,0 0,-3 -4.6972656,0 z"
     id="path4248" />
  <path
     style="fill:#ffffff;fill-opacity:1"
     d="m 9.6660156,15.5 0,3 4.6679684,0 0,-3 -4.6679684,0 z"
     id="path4246" />
  <path
     style="fill:#ffffff;fill-opacity:1"
     d="m 16.333984,15.5 0,3 4.697266,0 0,-3 -4.697266,0 z"
     id="path4" />
</svg>
