<?xml version="1.0" encoding="UTF-8" standalone="no"?>
<svg
   xmlns:dc="http://purl.org/dc/elements/1.1/"
   xmlns:cc="http://creativecommons.org/ns#"
   xmlns:rdf="http://www.w3.org/1999/02/22-rdf-syntax-ns#"
   xmlns:svg="http://www.w3.org/2000/svg"
   xmlns="http://www.w3.org/2000/svg"
   xmlns:sodipodi="http://sodipodi.sourceforge.net/DTD/sodipodi-0.dtd"
   xmlns:inkscape="http://www.inkscape.org/namespaces/inkscape"
   version="1.1"
   width="24"
   height="24"
   viewBox="0 0 24 24"
   id="svg2"
   inkscape:version="0.91 r13725"
   sodipodi:docname="ungroup_all.svg">
  <metadata
     id="metadata10">
    <rdf:RDF>
      <cc:Work
         rdf:about="">
        <dc:format>image/svg+xml</dc:format>
        <dc:type
           rdf:resource="http://purl.org/dc/dcmitype/StillImage" />
        <dc:title />
      </cc:Work>
    </rdf:RDF>
  </metadata>
  <defs
     id="defs8" />
  <sodipodi:namedview
     pagecolor="#ffffff"
     bordercolor="#666666"
     borderopacity="1"
     objecttolerance="10"
     gridtolerance="10"
     guidetolerance="10"
     inkscape:pageopacity="0"
     inkscape:pageshadow="2"
     inkscape:window-width="914"
     inkscape:window-height="375"
     id="namedview6"
     showgrid="false"
     showguides="true"
     inkscape:guide-bbox="true"
     inkscape:snap-bbox="true"
     inkscape:bbox-paths="true"
     inkscape:bbox-nodes="true"
     inkscape:snap-bbox-edge-midpoints="true"
     inkscape:snap-bbox-midpoints="true"
     inkscape:zoom="9.8333333"
     inkscape:cx="9.5593225"
     inkscape:cy="11.186441"
     inkscape:window-x="73"
     inkscape:window-y="79"
     inkscape:window-maximized="0"
     inkscape:current-layer="svg2">
    <sodipodi:guide
       position="16.169492,22"
       orientation="0,1"
       id="guide4140" />
    <sodipodi:guide
       position="12,2"
       orientation="0,1"
       id="guide4142" />
    <sodipodi:guide
       position="2,8.6440678"
       orientation="1,0"
       id="guide4144" />
    <sodipodi:guide
       position="22,13.627119"
       orientation="1,0"
       id="guide4146" />
  </sodipodi:namedview>
  <g
     id="g4138">
    <rect
       ry="2.667582"
       y="2"
       x="2"
       height="20"
       width="18.898306"
       id="rect4138"
       style="color:#000000;clip-rule:nonzero;display:inline;overflow:visible;visibility:visible;opacity:1;isolation:auto;mix-blend-mode:normal;color-interpolation:sRGB;color-interpolation-filters:linearRGB;solid-color:#000000;solid-opacity:1;fill:#343434;fill-opacity:1;fill-rule:nonzero;stroke:none;stroke-width:3.70000005;stroke-linecap:butt;stroke-linejoin:miter;stroke-miterlimit:4;stroke-dasharray:none;stroke-dashoffset:0;stroke-opacity:1;marker:none;color-rendering:auto;image-rendering:auto;shape-rendering:auto;text-rendering:auto;enable-background:accumulate" />
    <path
       style="fill:#ffffff;fill-opacity:1"
       inkscape:connector-curvature="0"
       id="path4"
       d="m 5.1525424,5.1525424 2.7389831,0 0,0.6847457 4.7932195,0 0,-0.6847457 2.738984,0 0,2.7389831 -0.684746,0 0,2.0542372 1.369492,0 0,-0.6847458 2.738982,0 0,2.7389831 -0.684745,0 0,4.108475 0.684745,0 0,2.738982 -2.738982,0 0,-0.684745 -4.108475,0 0,0.684745 -2.7389831,0 0,-2.738982 0.6847458,0 0,-1.369492 -2.0542372,0 0,0.684746 -2.7389831,0 0,-2.738984 0.6847457,0 0,-4.7932195 -0.6847457,0 0,-2.7389831 M 16.108475,12 l 0,-0.684745 -1.369492,0 0,1.36949 0.684746,0 0,2.738984 -2.738984,0 0,-0.684746 -1.36949,0 0,1.369492 0.684745,0 0,0.684745 4.108475,0 0,-0.684745 0.684745,0 0,-4.108475 -0.684745,0 m -3.42373,-4.1084745 0,-0.6847459 -4.7932195,0 0,0.6847459 -0.6847459,0 0,4.7932195 0.6847459,0 0,0.684747 2.0542372,0 0,-1.369492 -0.6847458,0 0,-2.7389831 2.7389831,0 0,0.6847458 1.369492,0 0,-2.0542372 -0.684747,0 M 12,12 l -0.684745,0 0,1.369492 1.36949,0 0,-0.684747 0.684747,0 0,-1.36949 -1.369492,0 L 12,12 Z" />
  </g>
</svg>
