<?xml version="1.0" encoding="UTF-8" standalone="no"?>
<!-- Created with Inkscape (http://www.inkscape.org/) -->

<svg
   xmlns:dc="http://purl.org/dc/elements/1.1/"
   xmlns:cc="http://creativecommons.org/ns#"
   xmlns:rdf="http://www.w3.org/1999/02/22-rdf-syntax-ns#"
   xmlns:svg="http://www.w3.org/2000/svg"
   xmlns="http://www.w3.org/2000/svg"
   xmlns:sodipodi="http://sodipodi.sourceforge.net/DTD/sodipodi-0.dtd"
   xmlns:inkscape="http://www.inkscape.org/namespaces/inkscape"
   width="231mm"
   height="300mm"
   viewBox="0 0 818.50388 1062.9921"
   id="svg4266"
   version="1.1"
   inkscape:version="0.91 r13725"
   sodipodi:docname="rlf_transition_3.svg">
  <defs
     id="defs4268" />
  <sodipodi:namedview
     id="base"
     pagecolor="#ffffff"
     bordercolor="#666666"
     borderopacity="1.0"
     inkscape:pageopacity="0.0"
     inkscape:pageshadow="2"
     inkscape:zoom="0.49497474"
     inkscape:cx="321.50093"
     inkscape:cy="487.33658"
     inkscape:document-units="px"
     inkscape:current-layer="layer1"
     showgrid="false"
     inkscape:window-width="1366"
     inkscape:window-height="744"
     inkscape:window-x="0"
     inkscape:window-y="24"
     inkscape:window-maximized="1"
     inkscape:snap-bbox="true"
     inkscape:bbox-paths="true"
     inkscape:bbox-nodes="true"
     inkscape:snap-bbox-edge-midpoints="true"
     inkscape:snap-bbox-midpoints="true"
     inkscape:object-paths="true"
     inkscape:snap-intersection-paths="true"
     inkscape:object-nodes="true"
     inkscape:snap-smooth-nodes="true"
     inkscape:snap-nodes="true" />
  <metadata
     id="metadata4271">
    <rdf:RDF>
      <cc:Work
         rdf:about="">
        <dc:format>image/svg+xml</dc:format>
        <dc:type
           rdf:resource="http://purl.org/dc/dcmitype/StillImage" />
        <dc:title />
      </cc:Work>
    </rdf:RDF>
  </metadata>
  <g
     inkscape:label="Layer 1"
     inkscape:groupmode="layer"
     id="layer1"
     transform="translate(0,10.629919)">
    <path
       style="color:#000000;clip-rule:nonzero;display:inline;overflow:visible;visibility:visible;opacity:1;isolation:auto;mix-blend-mode:normal;color-interpolation:sRGB;color-interpolation-filters:linearRGB;solid-color:#000000;solid-opacity:1;fill:#ff8a65;fill-opacity:1;fill-rule:nonzero;stroke:none;stroke-width:20;stroke-linecap:butt;stroke-linejoin:miter;stroke-miterlimit:4;stroke-dasharray:none;stroke-dashoffset:0;stroke-opacity:1;marker:none;color-rendering:auto;image-rendering:auto;shape-rendering:auto;text-rendering:auto;enable-background:accumulate"
       d="M 265.04923,283.4484 303.86216,27.103 29.29103,246.2739 c 123.63529,-56.0793 202.33268,-3.049 235.7582,37.1745 z"
       id="path4436"
       inkscape:connector-curvature="0"
       sodipodi:nodetypes="cccc" />
    <path
       style="color:#000000;clip-rule:nonzero;display:inline;overflow:visible;visibility:visible;opacity:1;isolation:auto;mix-blend-mode:normal;color-interpolation:sRGB;color-interpolation-filters:linearRGB;solid-color:#000000;solid-opacity:1;fill:#ff5722;fill-opacity:1;fill-rule:nonzero;stroke:none;stroke-width:25;stroke-linecap:butt;stroke-linejoin:miter;stroke-miterlimit:4;stroke-dasharray:none;stroke-dashoffset:0;stroke-opacity:1;marker:none;color-rendering:auto;image-rendering:auto;shape-rendering:auto;text-rendering:auto;enable-background:accumulate"
       d="m 303.86133,27.1025 -38.8125,256.3457 c -2.0891,-2.514 -4.35418,-5.0779 -6.79688,-7.6621 -2.4427,-2.5843 -5.06323,-5.1882 -7.85937,-7.7833 -2.79614,-2.595 -5.76855,-5.1803 -8.91797,-7.7265 -3.14942,-2.5463 -6.47598,-5.0543 -9.97852,-7.4922 -3.50253,-2.4379 -7.18162,-4.8061 -11.03711,-7.0762 -3.85548,-2.2701 -7.88742,-4.4416 -12.0957,-6.4843 -4.20828,-2.0428 -8.59144,-3.9571 -13.15234,-5.7129 -4.56091,-1.7559 -9.29952,-3.3543 -14.21289,-4.7637 -4.91337,-1.4095 -10.00191,-2.6293 -15.26758,-3.6328 -5.26567,-1.0035 -10.70837,-1.7901 -16.32617,-2.3281 -5.61781,-0.5381 -11.41108,-0.8288 -17.38086,-0.8418 -5.96978,-0.013 -12.11591,0.2527 -18.4375,0.8242 -6.32159,0.5715 -12.81895,1.4485 -19.49219,2.664 -6.67324,1.2156 -13.52215,2.7684 -20.54687,4.6875 -7.02473,1.9192 -14.22552,4.2064 -21.60157,6.8887 -7.37604,2.6823 -14.92709,5.7607 -22.65429,9.2656 l 0,119.0899 0,130.3086 0,516.4922 759.92184,2.4648 0,-518.957 0,-468.5703 -421.66012,0 -63.69141,0 z"
       id="path4527"
       inkscape:connector-curvature="0" />
    <path
       sodipodi:nodetypes="cc"
       inkscape:connector-curvature="0"
       id="path4364"
       d="m 130.41024,839.6256 257.3969,0"
       style="color:#000000;display:inline;overflow:visible;visibility:visible;fill:none;stroke:#d5f6ff;stroke-width:23;stroke-linecap:square;stroke-linejoin:bevel;stroke-miterlimit:4;stroke-dasharray:none;stroke-dashoffset:0;stroke-opacity:1;marker:none;enable-background:accumulate" />
    <path
       sodipodi:nodetypes="cc"
       inkscape:connector-curvature="0"
       id="path4366"
       d="m 130.41024,708.1257 252.598,0"
       style="color:#000000;display:inline;overflow:visible;visibility:visible;fill:none;stroke:#d5f6ff;stroke-width:23;stroke-linecap:square;stroke-linejoin:bevel;stroke-miterlimit:4;stroke-dasharray:none;stroke-dashoffset:0;stroke-opacity:1;marker:none;enable-background:accumulate" />
    <path
       style="fill:none;stroke:#d5f6ff;stroke-width:23;stroke-linecap:square;stroke-linejoin:bevel;stroke-miterlimit:4;stroke-dasharray:none;stroke-opacity:1"
       d="m 130.41024,576.6257 271.3137,0"
       id="path4368"
       inkscape:connector-curvature="0"
       sodipodi:nodetypes="cc" />
    <path
       style="color:#000000;clip-rule:nonzero;display:inline;overflow:visible;visibility:visible;opacity:1;isolation:auto;mix-blend-mode:normal;color-interpolation:sRGB;color-interpolation-filters:linearRGB;solid-color:#000000;solid-opacity:1;fill:#d84315;fill-opacity:0.61791047;fill-rule:nonzero;stroke:none;stroke-width:25;stroke-linecap:butt;stroke-linejoin:miter;stroke-miterlimit:4;stroke-dasharray:none;stroke-dashoffset:0;stroke-opacity:1;marker:none;color-rendering:auto;image-rendering:auto;shape-rendering:auto;text-rendering:auto;enable-background:accumulate"
       d="m 132.02344,221.9443 c -29.8489,-0.065 -64.0964,6.8053 -102.73242,24.33 l 0,233.2364 235.75781,-196.0625 C 242.06878,255.7945 197.69102,222.0875 132.02344,221.9443 Z"
       id="path4440"
       inkscape:connector-curvature="0" />
  </g>
</svg>
