<?xml version="1.0" encoding="UTF-8" standalone="no"?>
<!-- Created with Inkscape (http://www.inkscape.org/) -->

<svg
   xmlns:dc="http://purl.org/dc/elements/1.1/"
   xmlns:cc="http://creativecommons.org/ns#"
   xmlns:rdf="http://www.w3.org/1999/02/22-rdf-syntax-ns#"
   xmlns:svg="http://www.w3.org/2000/svg"
   xmlns="http://www.w3.org/2000/svg"
   xmlns:sodipodi="http://sodipodi.sourceforge.net/DTD/sodipodi-0.dtd"
   xmlns:inkscape="http://www.inkscape.org/namespaces/inkscape"
   width="231mm"
   height="300mm"
   viewBox="0 0 818.50388 1062.9921"
   id="svg4266"
   version="1.1"
   inkscape:version="0.91 r13725"
   sodipodi:docname="slf_transition_4.svg">
  <defs
     id="defs4268" />
  <sodipodi:namedview
     id="base"
     pagecolor="#ffffff"
     bordercolor="#666666"
     borderopacity="1.0"
     inkscape:pageopacity="0.0"
     inkscape:pageshadow="2"
     inkscape:zoom="0.35"
     inkscape:cx="439.36759"
     inkscape:cy="480.38011"
     inkscape:document-units="px"
     inkscape:current-layer="layer1"
     showgrid="false"
     inkscape:window-width="1366"
     inkscape:window-height="744"
     inkscape:window-x="0"
     inkscape:window-y="24"
     inkscape:window-maximized="1"
     inkscape:snap-bbox="true"
     inkscape:bbox-paths="true"
     inkscape:bbox-nodes="true"
     inkscape:snap-bbox-edge-midpoints="true"
     inkscape:snap-bbox-midpoints="true"
     inkscape:object-paths="true"
     inkscape:snap-intersection-paths="true"
     inkscape:object-nodes="true"
     inkscape:snap-smooth-nodes="true"
     inkscape:snap-nodes="true" />
  <metadata
     id="metadata4271">
    <rdf:RDF>
      <cc:Work
         rdf:about="">
        <dc:format>image/svg+xml</dc:format>
        <dc:type
           rdf:resource="http://purl.org/dc/dcmitype/StillImage" />
        <dc:title></dc:title>
      </cc:Work>
    </rdf:RDF>
  </metadata>
  <g
     inkscape:label="Layer 1"
     inkscape:groupmode="layer"
     id="layer1"
     transform="translate(0,10.629919)">
    <path
       sodipodi:nodetypes="cccc"
       inkscape:connector-curvature="0"
       id="path4394"
       d="M 309.9736,340.1106 367.5523,27.1029 29.2908,298.212 c 173.1328,-29.7437 262.4096,18.8477 280.6828,41.8986 z"
       style="color:#000000;clip-rule:nonzero;display:inline;overflow:visible;visibility:visible;opacity:0.678;isolation:auto;mix-blend-mode:normal;color-interpolation:sRGB;color-interpolation-filters:linearRGB;solid-color:#000000;solid-opacity:1;fill:#90caf9;fill-opacity:1;fill-rule:nonzero;stroke:none;stroke-width:20;stroke-linecap:butt;stroke-linejoin:miter;stroke-miterlimit:4;stroke-dasharray:none;stroke-dashoffset:0;stroke-opacity:1;marker:none;color-rendering:auto;image-rendering:auto;shape-rendering:auto;text-rendering:auto;enable-background:accumulate;filter-blend-mode:normal;filter-gaussianBlur-deviation:0" />
    <path
       style="color:#000000;clip-rule:nonzero;display:inline;overflow:visible;visibility:visible;opacity:1;isolation:auto;mix-blend-mode:normal;color-interpolation:sRGB;color-interpolation-filters:linearRGB;solid-color:#000000;solid-opacity:1;fill:#2196f3;fill-opacity:1;fill-rule:nonzero;stroke:none;stroke-width:8.71638012;stroke-linecap:butt;stroke-linejoin:miter;stroke-miterlimit:4;stroke-dasharray:none;stroke-dashoffset:0;stroke-opacity:1;marker:none;color-rendering:auto;image-rendering:auto;shape-rendering:auto;text-rendering:auto;enable-background:accumulate;filter-blend-mode:normal;filter-gaussianBlur-deviation:0"
       d="m 367.5527,27.1025 -57.5801,313.0078 c -1.142,-1.4407 -2.5598,-2.9809 -4.2597,-4.5957 -1.7,-1.6149 -3.6813,-3.3047 -5.9453,-5.043 -2.2641,-1.7383 -4.8121,-3.5249 -7.6465,-5.3359 -2.8345,-1.8111 -5.9561,-3.6455 -9.3672,-5.4786 -3.4112,-1.833 -7.1114,-3.6644 -11.1055,-5.4687 -3.9941,-1.8044 -8.2819,-3.5817 -12.8652,-5.3066 -4.5833,-1.725 -9.4618,-3.3975 -14.6406,-4.9922 -5.1789,-1.5948 -10.6569,-3.1115 -16.4375,-4.5254 -5.7807,-1.4139 -11.8633,-2.7259 -18.252,-3.9082 -6.3887,-1.1823 -13.0849,-2.2367 -20.0879,-3.1367 -7.003,-0.9001 -14.3139,-1.646 -21.9375,-2.2129 -7.6236,-0.567 -15.5581,-0.9535 -23.8086,-1.1368 -8.2505,-0.1832 -16.8175,-0.1633 -25.7011,0.088 -8.8837,0.2513 -18.0844,0.7324 -27.6075,1.4688 -9.5231,0.7364 -19.3683,1.7296 -29.5371,3.0019 -10.1688,1.2724 -20.6616,2.8247 -31.4824,4.6836 l 0,67.1524 0,130.3086 0,516.4922 759.9219,2.4648 0,-518.957 0,-468.5703 -421.6602,0 z"
       id="path4532"
       inkscape:connector-curvature="0" />
    <path
       style="color:#000000;display:inline;overflow:visible;visibility:visible;fill:none;stroke:#d5f6ff;stroke-width:23;stroke-linecap:square;stroke-linejoin:bevel;stroke-miterlimit:4;stroke-dasharray:none;stroke-dashoffset:0;stroke-opacity:1;marker:none;enable-background:accumulate"
       d="m 130.41,839.6256 257.3969,0"
       id="path4374"
       inkscape:connector-curvature="0"
       sodipodi:nodetypes="cc" />
    <path
       style="color:#000000;display:inline;overflow:visible;visibility:visible;fill:none;stroke:#d5f6ff;stroke-width:23;stroke-linecap:square;stroke-linejoin:bevel;stroke-miterlimit:4;stroke-dasharray:none;stroke-dashoffset:0;stroke-opacity:1;marker:none;enable-background:accumulate"
       d="m 130.41,708.1257 252.598,0"
       id="path4376"
       inkscape:connector-curvature="0"
       sodipodi:nodetypes="cc" />
    <path
       sodipodi:nodetypes="cc"
       inkscape:connector-curvature="0"
       id="path4378"
       d="m 130.41,576.6257 271.3137,0"
       style="fill:none;stroke:#d5f6ff;stroke-width:23;stroke-linecap:square;stroke-linejoin:bevel;stroke-miterlimit:4;stroke-dasharray:none;stroke-opacity:1" />
    <path
       style="color:#000000;clip-rule:nonzero;display:inline;overflow:visible;visibility:visible;opacity:1;isolation:auto;mix-blend-mode:normal;color-interpolation:sRGB;color-interpolation-filters:linearRGB;solid-color:#000000;solid-opacity:1;fill:#1565c0;fill-opacity:0.61960784;fill-rule:nonzero;stroke:none;stroke-width:25;stroke-linecap:butt;stroke-linejoin:miter;stroke-miterlimit:4;stroke-dasharray:none;stroke-dashoffset:0;stroke-opacity:1;marker:none;color-rendering:auto;image-rendering:auto;shape-rendering:auto;text-rendering:auto;enable-background:accumulate;filter-blend-mode:normal;filter-gaussianBlur-deviation:0"
       d="m 131.0058,288.8505 c -29.982,0.097 -63.842,2.8549 -101.7148,9.3613 l 0,289.6895 280.6816,-247.791 c -0.9622,-1.138 -1.9971,-2.2809 -3.0664,-3.4258 -18.3568,-18.5206 -75.2948,-48.1589 -175.9004,-47.834 z"
       id="path4438"
       inkscape:connector-curvature="0" />
  </g>
</svg>
