<?xml version="1.0" encoding="UTF-8" standalone="no"?>
<!-- Created with Inkscape (http://www.inkscape.org/) -->

<svg
   xmlns:dc="http://purl.org/dc/elements/1.1/"
   xmlns:cc="http://creativecommons.org/ns#"
   xmlns:rdf="http://www.w3.org/1999/02/22-rdf-syntax-ns#"
   xmlns:svg="http://www.w3.org/2000/svg"
   xmlns="http://www.w3.org/2000/svg"
   xmlns:sodipodi="http://sodipodi.sourceforge.net/DTD/sodipodi-0.dtd"
   xmlns:inkscape="http://www.inkscape.org/namespaces/inkscape"
   width="300mm"
   height="300mm"
   viewBox="0 0 1062.992 1062.9921"
   id="svg4266"
   version="1.1"
   inkscape:version="0.91 r13725"
   sodipodi:docname="assistant.svg">
  <defs
     id="defs4268">
    <filter
       inkscape:collect="always"
       style="color-interpolation-filters:sRGB"
       id="filter4173"
       x="-0.01194395"
       width="1.0238879"
       y="-0.012056579"
       height="1.0241132">
      <feGaussianBlur
         inkscape:collect="always"
         stdDeviation="5.0765869"
         id="feGaussianBlur4175" />
    </filter>
  </defs>
  <sodipodi:namedview
     id="base"
     pagecolor="#ffffff"
     bordercolor="#666666"
     borderopacity="1.0"
     inkscape:pageopacity="0.0"
     inkscape:pageshadow="2"
     inkscape:zoom="0.22627417"
     inkscape:cx="819.39712"
     inkscape:cy="267.70086"
     inkscape:document-units="px"
     inkscape:current-layer="layer1"
     showgrid="false"
     inkscape:window-width="1366"
     inkscape:window-height="744"
     inkscape:window-x="0"
     inkscape:window-y="24"
     inkscape:window-maximized="1"
     inkscape:snap-bbox="false"
     inkscape:bbox-paths="true"
     inkscape:bbox-nodes="true"
     inkscape:snap-bbox-edge-midpoints="true"
     inkscape:snap-bbox-midpoints="true"
     inkscape:object-paths="true"
     inkscape:object-nodes="true"
     inkscape:snap-intersection-paths="true"
     inkscape:snap-smooth-nodes="true"
     inkscape:snap-nodes="false" />
  <metadata
     id="metadata4271">
    <rdf:RDF>
      <cc:Work
         rdf:about="">
        <dc:format>image/svg+xml</dc:format>
        <dc:type
           rdf:resource="http://purl.org/dc/dcmitype/StillImage" />
        <dc:title />
      </cc:Work>
    </rdf:RDF>
  </metadata>
  <g
     inkscape:label="Layer 1"
     inkscape:groupmode="layer"
     id="layer1"
     transform="translate(0,10.629919)">
    <g
       id="g4177">
      <path
         inkscape:connector-curvature="0"
         id="path4161"
         d="m 535.48047,19.589844 c -281.51884,0 -510.025392,226.299566 -510.025392,505.291016 0,278.99149 228.507302,505.26174 510.025392,505.26174 281.51807,0 510.05663,-226.2695 510.05663,-505.26174 0,-278.99221 -228.53782,-505.291016 -510.05663,-505.291016 z m 0,20.21289 c 270.69878,0 489.84373,217.115206 489.84373,485.078126 0,267.96296 -219.1442,485.04884 -489.84373,485.04884 -270.69955,0 -489.812501,-217.08513 -489.812501,-485.04884 0,-267.96367 219.113691,-485.078126 489.812501,-485.078126 z m 0,198.958986 c -159.30986,0 -288.74414,128.17314 -288.74414,286.11914 0,157.94599 129.43562,286.08984 288.74414,286.08984 159.30852,0 288.77539,-128.1425 288.77539,-286.08984 0,-157.94735 -129.46553,-286.11914 -288.77539,-286.11914 z m 0,20.21289 c 148.4895,0 268.5625,118.98852 268.5625,265.90625 0,146.91772 -120.07166,265.87695 -268.5625,265.87695 -148.49084,0 -268.5332,-118.95788 -268.5332,-265.87695 0,-146.91908 120.0437,-265.90625 268.5332,-265.90625 z"
         style="color:#000000;font-style:normal;font-variant:normal;font-weight:normal;font-stretch:normal;font-size:medium;line-height:normal;font-family:sans-serif;text-indent:0;text-align:start;text-decoration:none;text-decoration-line:none;text-decoration-style:solid;text-decoration-color:#000000;letter-spacing:normal;word-spacing:normal;text-transform:none;direction:ltr;block-progression:tb;writing-mode:lr-tb;baseline-shift:baseline;text-anchor:start;white-space:normal;clip-rule:nonzero;display:inline;overflow:visible;visibility:visible;opacity:1;isolation:auto;mix-blend-mode:normal;color-interpolation:sRGB;color-interpolation-filters:linearRGB;solid-color:#000000;solid-opacity:1;fill:#323232;fill-opacity:1;fill-rule:nonzero;stroke:none;stroke-width:20.21252823;stroke-linecap:butt;stroke-linejoin:miter;stroke-miterlimit:4;stroke-dasharray:none;stroke-dashoffset:0;stroke-opacity:1;marker:none;filter:url(#filter4173);color-rendering:auto;image-rendering:auto;shape-rendering:auto;text-rendering:auto;enable-background:accumulate" />
      <path
         inkscape:connector-curvature="0"
         style="color:#000000;clip-rule:nonzero;display:inline;overflow:visible;visibility:visible;opacity:1;isolation:auto;mix-blend-mode:normal;color-interpolation:sRGB;color-interpolation-filters:linearRGB;solid-color:#000000;solid-opacity:1;fill:#cfd8dc;fill-opacity:1;fill-rule:nonzero;stroke:#78909c;stroke-width:20.21252823;stroke-linecap:butt;stroke-linejoin:miter;stroke-miterlimit:4;stroke-dasharray:none;stroke-dashoffset:0;stroke-opacity:1;marker:none;color-rendering:auto;image-rendering:auto;shape-rendering:auto;text-rendering:auto;enable-background:accumulate"
         d="m 531.48069,25.696918 c -276.10882,0 -499.919332,221.706982 -499.919332,495.184542 0,273.4776 223.810512,495.15394 499.919332,495.15394 276.1088,0 499.94991,-221.67634 499.94991,-495.15394 0,-273.47756 -223.84111,-495.184542 -499.94991,-495.184542 z m 0,219.171542 c 153.89968,0 278.66934,123.58046 278.66934,276.013 0,152.43253 -124.76966,275.98246 -278.66934,275.98246 -153.89968,0 -278.63872,-123.54993 -278.63872,-275.98246 0,-152.43254 124.73904,-276.013 278.63872,-276.013 z"
         id="path5572" />
      <path
         inkscape:connector-curvature="0"
         style="color:#000000;clip-rule:nonzero;display:inline;overflow:visible;visibility:visible;opacity:1;isolation:auto;mix-blend-mode:normal;color-interpolation:sRGB;color-interpolation-filters:linearRGB;solid-color:#000000;solid-opacity:1;fill:#ff5722;fill-opacity:1;fill-rule:nonzero;stroke:#d84315;stroke-width:20.21252823;stroke-linecap:butt;stroke-linejoin:miter;stroke-miterlimit:4;stroke-dasharray:none;stroke-dashoffset:0;stroke-opacity:1;marker:none;color-rendering:auto;image-rendering:auto;shape-rendering:auto;text-rendering:auto;enable-background:accumulate"
         d="M 1014.5135,392.67461 800.70312,449.4244 c 6.1524,22.79461 9.44691,46.74175 9.44691,71.45706 0,24.70494 -3.29946,48.64179 -9.44691,71.42643 l 213.81038,56.74978 c 11.0305,-40.88214 16.9171,-83.84877 16.9171,-128.17621 0,-44.33772 -5.8817,-87.31481 -16.9171,-128.20685 z"
         id="path5574" />
      <path
         inkscape:connector-curvature="0"
         style="color:#000000;clip-rule:nonzero;display:inline;overflow:visible;visibility:visible;opacity:1;isolation:auto;mix-blend-mode:normal;color-interpolation:sRGB;color-interpolation-filters:linearRGB;solid-color:#000000;solid-opacity:1;fill:#ff5722;fill-opacity:1;fill-rule:nonzero;stroke:#d84315;stroke-width:20.21252823;stroke-linecap:butt;stroke-linejoin:miter;stroke-miterlimit:4;stroke-dasharray:none;stroke-dashoffset:0;stroke-opacity:1;marker:none;color-rendering:auto;image-rendering:auto;shape-rendering:auto;text-rendering:auto;enable-background:accumulate"
         d="m 48.479447,392.67461 c -11.035383,40.89204 -16.918089,83.86913 -16.918089,128.20685 0,44.32744 5.887645,87.29407 16.918089,128.17621 L 262.28887,592.33852 c -6.1514,-22.79325 -9.4469,-46.74175 -9.4469,-71.45706 0,-24.71531 3.2955,-48.66245 9.4469,-71.45706 L 48.479447,392.67461 Z"
         id="path5576" />
      <path
         inkscape:connector-curvature="0"
         style="color:#000000;clip-rule:nonzero;display:inline;overflow:visible;visibility:visible;opacity:1;isolation:auto;mix-blend-mode:normal;color-interpolation:sRGB;color-interpolation-filters:linearRGB;solid-color:#000000;solid-opacity:1;fill:#ff5722;fill-opacity:1;fill-rule:nonzero;stroke:#d84315;stroke-width:20.21252823;stroke-linecap:butt;stroke-linejoin:miter;stroke-miterlimit:4;stroke-dasharray:none;stroke-dashoffset:0;stroke-opacity:1;marker:none;color-rendering:auto;image-rendering:auto;shape-rendering:auto;text-rendering:auto;enable-background:accumulate"
         d="m 531.48069,25.696918 c -44.754,0 -88.13389,5.829865 -129.40964,16.75586 l 57.29586,211.771962 c 23.0043,-6.08886 47.17131,-9.35628 72.11378,-9.35628 24.95334,0 49.13121,3.26243 72.14439,9.35628 L 660.92096,42.452778 C 619.63533,31.521891 576.24457,25.696918 531.48069,25.696918 Z"
         id="path5578" />
      <path
         inkscape:connector-curvature="0"
         style="color:#000000;clip-rule:nonzero;display:inline;overflow:visible;visibility:visible;opacity:1;isolation:auto;mix-blend-mode:normal;color-interpolation:sRGB;color-interpolation-filters:linearRGB;solid-color:#000000;solid-opacity:1;fill:#ff5722;fill-opacity:1;fill-rule:nonzero;stroke:#d84315;stroke-width:20.21252823;stroke-linecap:butt;stroke-linejoin:miter;stroke-miterlimit:4;stroke-dasharray:none;stroke-dashoffset:0;stroke-opacity:1;marker:none;color-rendering:auto;image-rendering:auto;shape-rendering:auto;text-rendering:auto;enable-background:accumulate"
         d="M 459.36691,787.50755 402.07105,999.2796 c 41.27575,10.9246 84.65564,16.7558 129.40964,16.7558 44.76388,0 88.15464,-5.8263 129.44027,-16.7558 L 603.62508,787.50755 c -23.01318,6.09253 -47.19105,9.35637 -72.14439,9.35637 -24.94247,0 -49.10948,-3.26877 -72.11378,-9.35637 z"
         id="path5580" />
    </g>
  </g>
</svg>
