<?xml version="1.0" encoding="UTF-8" standalone="no"?>
<!-- Created with Inkscape (http://www.inkscape.org/) -->

<svg
   xmlns:dc="http://purl.org/dc/elements/1.1/"
   xmlns:cc="http://creativecommons.org/ns#"
   xmlns:rdf="http://www.w3.org/1999/02/22-rdf-syntax-ns#"
   xmlns:svg="http://www.w3.org/2000/svg"
   xmlns="http://www.w3.org/2000/svg"
   xmlns:sodipodi="http://sodipodi.sourceforge.net/DTD/sodipodi-0.dtd"
   xmlns:inkscape="http://www.inkscape.org/namespaces/inkscape"
   width="300mm"
   height="300mm"
   viewBox="0 0 1062.992 1062.9921"
   id="svg4266"
   version="1.1"
   inkscape:version="0.91 r13725"
   sodipodi:docname="genrep.svg">
  <defs
     id="defs4268">
    <filter
       inkscape:collect="always"
       style="color-interpolation-filters:sRGB"
       id="filter4220"
       x="-0.013797071"
       width="1.0275941"
       y="-0.010617118"
       height="1.0212342">
      <feGaussianBlur
         inkscape:collect="always"
         stdDeviation="4.3686231"
         id="feGaussianBlur4222" />
    </filter>
    <filter
       inkscape:collect="always"
       style="color-interpolation-filters:sRGB"
       id="filter4224"
       x="-0.011999995"
       width="1.024"
       y="-0.012000005"
       height="1.024">
      <feGaussianBlur
         inkscape:collect="always"
         stdDeviation="1.1090115"
         id="feGaussianBlur4226" />
    </filter>
  </defs>
  <sodipodi:namedview
     id="base"
     pagecolor="#ffffff"
     bordercolor="#666666"
     borderopacity="1.0"
     inkscape:pageopacity="0.0"
     inkscape:pageshadow="2"
     inkscape:zoom="0.11313709"
     inkscape:cx="-1658.9856"
     inkscape:cy="882.98262"
     inkscape:document-units="px"
     inkscape:current-layer="layer1"
     showgrid="false"
     inkscape:window-width="1366"
     inkscape:window-height="744"
     inkscape:window-x="0"
     inkscape:window-y="24"
     inkscape:window-maximized="1"
     inkscape:snap-bbox="true"
     inkscape:bbox-paths="true"
     inkscape:bbox-nodes="true"
     inkscape:snap-bbox-edge-midpoints="true"
     inkscape:snap-bbox-midpoints="true"
     inkscape:object-paths="true"
     inkscape:object-nodes="true"
     inkscape:snap-intersection-paths="true"
     inkscape:snap-smooth-nodes="true"
     inkscape:snap-nodes="false" />
  <metadata
     id="metadata4271">
    <rdf:RDF>
      <cc:Work
         rdf:about="">
        <dc:format>image/svg+xml</dc:format>
        <dc:type
           rdf:resource="http://purl.org/dc/dcmitype/StillImage" />
        <dc:title />
      </cc:Work>
    </rdf:RDF>
  </metadata>
  <g
     inkscape:label="Layer 1"
     inkscape:groupmode="layer"
     id="layer1"
     transform="translate(0,10.629919)">
    <g
       id="g4291">
      <path
         inkscape:connector-curvature="0"
         id="path4195"
         d="m 991.79851,138.54538 c -21.9118,0.14819 -46.35393,9.91643 -68.47852,32.04102 l -54.63086,54.6309 13.28907,5.9199 c 0,0 29.39661,13.3652 49.88086,33.8496 20.48417,20.4845 32.3457,48.2598 32.3457,48.2598 l 5.75586,13.75 54.88478,-54.8848 c 41.4339,-41.4344 39.9793,-89.688 13.7324,-115.40236 -11.483,-11.24999 -27.2089,-17.7714 -44.66601,-18.14843 -0.7014,-0.0152 -1.40645,-0.0204 -2.11328,-0.0156 z m 1.27539,19.39844 c 12.7559,0.32214 23.6801,5.38383 31.5078,13.05278 17.892,17.5289 22.2438,50.8494 -13.8789,86.9726 l -34.54296,34.5449 c -5.92987,-11.1249 -15.69493,-27.2065 -30.15821,-41.6699 -14.81156,-14.8117 -31.76607,-25.1894 -43.22461,-31.4316 l 34.68555,-34.6836 c 19.7801,-19.7801 39.21085,-27.19936 55.61133,-26.78518 z M 792.69304,237.8579 c -2.53387,0.0174 -5.04902,0.0914 -7.54102,0.2187 -39.87195,2.0347 -73.97931,17.0207 -92.1875,33.2168 a 7.1211125,7.1211125 0 0 0 -2.0664,3.2422 l -0.008,-0.01 c 0,0 -0.0815,0.3044 -0.084,0.3126 a 7.1211125,7.1211125 0 0 0 -0.0234,0.0839 c -0.18221,0.5954 -4.30005,14.1038 -6.44531,30.2578 -1.09644,8.2563 -1.68956,17.1514 -0.81055,25.5528 0.87901,8.4015 3.14518,16.6236 9.10157,22.6621 a 7.1211125,7.1211125 0 0 0 10.18164,-0.0449 c 0.19597,-0.2022 5.93722,-5.1301 13.92578,-9.795 7.98856,-4.6649 18.79204,-9.7186 31.15234,-12.6601 24.72061,-5.883 55.18589,-4.0543 85.7461,26.5058 26.47541,26.4756 32.85696,54.1658 31.05664,78.125 -1.80033,23.9593 -12.56067,44.3117 -19.92969,52.8868 L 645.73015,720.02 a 7.1211125,7.1211125 0 0 0 -0.22266,0.2734 c 0,0 -4.13304,5.2203 -6,12.7852 -1.86696,7.5649 -1.03946,18.6617 7.8125,27.5137 8.85205,8.852 19.94848,9.679 27.51367,7.8125 7.5652,-1.8664 12.78711,-5.9999 12.78711,-6 a 7.1211125,7.1211125 0 0 0 0.99024,-0.9317 L 919.46843,497.7134 c 15.7937,-18.0444 32.06419,-50.9936 35.30273,-89.7754 3.23855,-38.7818 -7.25306,-83.4446 -45.66601,-121.8575 a 7.1211125,7.1211125 0 0 0 -0.002,0 c -0.0152,-0.015 -0.0317,-0.0279 -0.0469,-0.0429 -33.60113,-33.5775 -72.74616,-46.6717 -108.70703,-48.0586 -2.5698,-0.0991 -5.12238,-0.1386 -7.65625,-0.1211 z m 0.0996,14.2344 c 2.32118,-0.019 4.65742,0.0122 7.00586,0.0976 l 0,0.002 c 32.87814,1.1958 68.20131,12.9259 99.23437,43.9589 a 7.1211125,7.1211125 0 0 0 0.0274,0.0215 c 35.44487,35.4598 44.47637,75.1698 41.51953,110.5782 -2.95756,35.4169 -18.60797,66.4801 -31.82617,81.582 L 678.50945,751.3911 c -0.49558,0.3565 -3.13912,2.2137 -7.08594,3.1875 -4.33446,1.0694 -8.68884,1.2857 -14.03321,-4.0586 -5.34423,-5.3442 -5.12623,-9.6973 -4.05664,-14.0313 1.05674,-4.2819 3.33334,-7.3381 3.38868,-7.4121 L 855.56218,497.6919 c 9.91658,-11.5397 21.2693,-33.6743 23.33008,-61.0996 2.06077,-27.4254 -5.94712,-60.0194 -35.1875,-89.2598 -33.82079,-33.8208 -70.90949,-37.0049 -99.11328,-30.293 -14.1019,3.356 -26.103,9.0017 -35.03711,14.2188 -4.14344,2.4195 -7.33846,4.5483 -10.02539,6.4804 -0.85192,-2.3683 -1.4963,-5.2234 -1.83789,-8.4882 -0.69622,-6.6544 -0.24024,-14.6397 0.76367,-22.1993 1.76878,-13.3191 4.73782,-23.6904 5.50976,-26.3242 15.26005,-12.7511 46.40788,-26.6178 81.91211,-28.4297 2.28872,-0.1168 4.59484,-0.186 6.91602,-0.205 z M 766.5114,359.1508 c -7.64553,0.0402 -14.83603,1.412 -21.19727,3.5079 -18.63819,6.1409 -31.2476,17.7938 -32.20312,18.6933 L 318.49382,722.2407 a 7.1211125,7.1211125 0 0 0 -2.27539,3.7519 l -16.36719,69.4766 a 7.1211125,7.1211125 0 0 0 9.11524,8.4102 c 0,0 15.95803,-5.1233 34.67382,-7.336 18.7158,-2.2127 39.21897,-0.6013 48.24024,8.42 9.02003,9.02 10.63465,29.5365 8.42187,48.2617 -2.21277,18.7252 -7.33593,34.6914 -7.33593,34.6914 a 7.1211125,7.1211125 0 0 0 8.41015,9.1133 l 69.50196,-16.375 a 7.1211125,7.1211125 0 0 0 3.75586,-2.2735 L 815.49968,483.7876 c 0.78142,-0.8279 12.54148,-13.4859 18.7168,-32.2285 6.38747,-19.3866 6.04353,-46.4623 -18.19727,-70.7032 -15.1505,-15.1506 -31.40862,-20.9669 -46.20508,-21.6386 -1.10973,-0.0504 -2.21051,-0.0722 -3.30273,-0.0665 z m 0.0215,13.918 c 0.84503,-0.0218 1.69566,-0.0203 2.55274,0.004 11.42769,0.3228 23.90378,4.8921 36.86328,17.8516 20.7352,20.7353 19.99577,40.2345 14.74219,56.1797 -5.25359,15.9452 -15.66211,27.0332 -15.66211,27.0332 a 7.1211125,7.1211125 0 0 0 -0.22657,0.25 l -339.43554,392.9375 -55.61133,13.1015 c 1.64309,-6.7415 3.52806,-15.7012 4.68945,-25.5293 2.40246,-20.3304 2.60373,-44.9021 -12.49414,-60 -15.09663,-15.0966 -39.66069,-14.8987 -59.98242,-12.4961 -9.8214,1.1612 -18.77396,3.0447 -25.51172,4.6876 l 13.09375,-55.5801 392.9375,-339.4356 a 7.1211125,7.1211125 0 0 0 0.25,-0.2265 c 0,0 11.08804,-10.4085 27.0332,-15.6621 5.23201,-1.7239 10.84657,-2.9626 16.76172,-3.1153 z"
         style="color:#000000;font-style:normal;font-variant:normal;font-weight:normal;font-stretch:normal;font-size:medium;line-height:normal;font-family:sans-serif;text-indent:0;text-align:start;text-decoration:none;text-decoration-line:none;text-decoration-style:solid;text-decoration-color:#000000;letter-spacing:normal;word-spacing:normal;text-transform:none;direction:ltr;block-progression:tb;writing-mode:lr-tb;baseline-shift:baseline;text-anchor:start;white-space:normal;clip-rule:nonzero;display:inline;overflow:visible;visibility:visible;opacity:1;isolation:auto;mix-blend-mode:normal;color-interpolation:sRGB;color-interpolation-filters:linearRGB;solid-color:#000000;solid-opacity:1;fill:#323232;fill-opacity:1;fill-rule:nonzero;stroke:none;stroke-width:25;stroke-linecap:butt;stroke-linejoin:miter;stroke-miterlimit:4;stroke-dasharray:none;stroke-dashoffset:0;stroke-opacity:1;marker:none;filter:url(#filter4220);color-rendering:auto;image-rendering:auto;shape-rendering:auto;text-rendering:auto;enable-background:accumulate" />
      <path
         sodipodi:nodetypes="ccccccccccc"
         style="fill:#323232;fill-opacity:1;fill-rule:evenodd;stroke:none;stroke-width:1px;stroke-linecap:butt;stroke-linejoin:miter;stroke-opacity:1;filter:url(#filter4224)"
         d="m 373.8007,816.831 c -49.5583,14.9598 -100.0956,26.6534 -159.0548,18.7825 L 151.72615,1024.9577 266.0746,917.6406 c -3.63211,-8.91568 -1.56745,-19.13983 5.2398,-25.9474 9.34452,-9.34391 24.49432,-9.34395 33.8389,-1e-4 9.34388,9.34455 9.34388,24.49435 0,33.8389 -6.80829,6.79355 -17.02243,8.85051 -25.9296,5.2218 l -114.75698,108.507 196.76618,-57.1602 c -7.8708,-58.9592 -2.3921,-115.7113 12.5678,-165.2696 z"
         id="path4199"
         inkscape:connector-curvature="0" />
      <path
         style="color:#000000;clip-rule:nonzero;display:inline;overflow:visible;visibility:visible;opacity:1;isolation:auto;mix-blend-mode:normal;color-interpolation:sRGB;color-interpolation-filters:linearRGB;solid-color:#000000;solid-opacity:1;fill:#323232;fill-opacity:1;fill-rule:nonzero;stroke:none;stroke-width:25;stroke-linecap:butt;stroke-linejoin:miter;stroke-miterlimit:4;stroke-dasharray:none;stroke-dashoffset:0;stroke-opacity:1;marker:none;color-rendering:auto;image-rendering:auto;shape-rendering:auto;text-rendering:auto;enable-background:accumulate;filter:url(#filter4220)"
         d="M 379.84834,30.617781 41.588639,368.8796 l 0,646.8007 78.373001,0.2539 64.8672,-234.6816 c 23.3334,8.5153 48.0944,13.2574 71.4277,10.3574 l 23.5723,-103.2148 375.7148,-304.6426 c -22.8175,-34.8693 -17.0486,-108.5471 11.4278,-154.2851 18.573,-19.1629 72.3313,-39.2448 134.539,-38.9961 l 0,-159.853619 -421.6621,0 z m 421.6621,668.173919 -95.9668,112.1035 c -52.7404,41.2437 -84.7972,7.1303 -108.5722,-12.8574 l -101.4278,124.2851 -92.8574,18.5723 c -1.3394,33.4821 2.3211,43.7506 7.1426,65.7148 l -29.9785,10.168 421.6601,1.3672 0,-319.3535 z"
         id="path4183"
         inkscape:connector-curvature="0" />
      <g
         id="g4651"
         transform="translate(-2624.1711,-1295.4671)">
        <path
           style="color:#000000;clip-rule:nonzero;display:inline;overflow:visible;visibility:visible;opacity:1;isolation:auto;mix-blend-mode:normal;color-interpolation:sRGB;color-interpolation-filters:linearRGB;solid-color:#000000;solid-opacity:1;fill:#ff5722;fill-opacity:1;fill-rule:nonzero;stroke:none;stroke-width:25;stroke-linecap:butt;stroke-linejoin:miter;stroke-miterlimit:4;stroke-dasharray:none;stroke-dashoffset:0;stroke-opacity:1;marker:none;color-rendering:auto;image-rendering:auto;shape-rendering:auto;text-rendering:auto;enable-background:accumulate"
           d="m 3000.0195,1332.7148 -338.2597,338.2618 0,646.8007 78.373,0.2539 L 2805,2083.3496 c 23.3334,8.5153 48.0944,13.2574 71.4277,10.3574 L 2900,1990.4922 3275.7148,1685.8496 c -22.8175,-34.8693 -17.0486,-108.5471 11.4278,-154.2851 18.573,-19.1629 72.3313,-39.2448 134.539,-38.9961 l 0,-159.8536 -421.6621,0 z m 421.6621,668.1739 -95.9668,112.1035 c -52.7404,41.2437 -84.7972,7.1303 -108.5722,-12.8574 l -101.4278,124.2851 -92.8574,18.5723 c -1.3394,33.4821 2.3211,43.7506 7.1426,65.7148 l -29.9785,10.168 421.6601,1.3672 0,-319.3535 z"
           transform="translate(-6.1035156e-5,-10.629919)"
           id="path4128-3"
           inkscape:connector-curvature="0" />
        <path
           style="color:#000000;clip-rule:nonzero;display:inline;overflow:visible;visibility:visible;opacity:1;isolation:auto;mix-blend-mode:normal;color-interpolation:sRGB;color-interpolation-filters:linearRGB;solid-color:#000000;solid-opacity:1;fill:#ff8a65;fill-opacity:1;fill-rule:nonzero;stroke:none;stroke-width:20;stroke-linecap:butt;stroke-linejoin:miter;stroke-miterlimit:4;stroke-dasharray:none;stroke-dashoffset:0;stroke-opacity:1;marker:none;color-rendering:auto;image-rendering:auto;shape-rendering:auto;text-rendering:auto;enable-background:accumulate"
           d="m 3000.0204,1660.3466 0,-338.2615 -338.2615,338.2615 z"
           id="path4130-7"
           inkscape:connector-curvature="0"
           sodipodi:nodetypes="cccc" />
        <path
           style="color:#000000;font-style:normal;font-variant:normal;font-weight:normal;font-stretch:normal;font-size:medium;line-height:normal;font-family:sans-serif;text-indent:0;text-align:start;text-decoration:none;text-decoration-line:none;text-decoration-style:solid;text-decoration-color:#000000;letter-spacing:normal;word-spacing:normal;text-transform:none;direction:ltr;block-progression:tb;writing-mode:lr-tb;baseline-shift:baseline;text-anchor:start;white-space:normal;clip-rule:nonzero;display:inline;overflow:visible;visibility:visible;opacity:1;isolation:auto;mix-blend-mode:normal;color-interpolation:sRGB;color-interpolation-filters:linearRGB;solid-color:#000000;solid-opacity:1;fill:#d5f6ff;fill-opacity:1;fill-rule:nonzero;stroke:none;stroke-width:23;stroke-linecap:square;stroke-linejoin:bevel;stroke-miterlimit:4;stroke-dasharray:none;stroke-dashoffset:0;stroke-opacity:1;marker:none;color-rendering:auto;image-rendering:auto;shape-rendering:auto;text-rendering:auto;enable-background:accumulate"
           d="m 2751.3789,2133.7383 0,23 11.5,0 21.8359,0 6.3575,-23 -28.1934,0 -11.5,0 z"
           transform="translate(-6.1035156e-5,-10.629919)"
           id="path4132-5"
           inkscape:connector-curvature="0" />
        <path
           style="color:#000000;font-style:normal;font-variant:normal;font-weight:normal;font-stretch:normal;font-size:medium;line-height:normal;font-family:sans-serif;text-indent:0;text-align:start;text-decoration:none;text-decoration-line:none;text-decoration-style:solid;text-decoration-color:#000000;letter-spacing:normal;word-spacing:normal;text-transform:none;direction:ltr;block-progression:tb;writing-mode:lr-tb;baseline-shift:baseline;text-anchor:start;white-space:normal;clip-rule:nonzero;display:inline;overflow:visible;visibility:visible;opacity:1;isolation:auto;mix-blend-mode:normal;color-interpolation:sRGB;color-interpolation-filters:linearRGB;solid-color:#000000;solid-opacity:1;fill:#d5f6ff;fill-opacity:1;fill-rule:nonzero;stroke:none;stroke-width:23;stroke-linecap:square;stroke-linejoin:bevel;stroke-miterlimit:4;stroke-dasharray:none;stroke-dashoffset:0;stroke-opacity:1;marker:none;color-rendering:auto;image-rendering:auto;shape-rendering:auto;text-rendering:auto;enable-background:accumulate"
           d="m 2751.3789,2002.2383 0,23 11.5,0 129.1856,0 5.2539,-23 -134.4395,0 -11.5,0 z"
           transform="translate(-6.1035156e-5,-10.629919)"
           id="path4134-9"
           inkscape:connector-curvature="0" />
        <path
           style="color:#000000;font-style:normal;font-variant:normal;font-weight:normal;font-stretch:normal;font-size:medium;line-height:normal;font-family:sans-serif;text-indent:0;text-align:start;text-decoration:none;text-decoration-line:none;text-decoration-style:solid;text-decoration-color:#000000;letter-spacing:normal;word-spacing:normal;text-transform:none;direction:ltr;block-progression:tb;writing-mode:lr-tb;baseline-shift:baseline;text-anchor:start;white-space:normal;clip-rule:nonzero;display:inline;overflow:visible;visibility:visible;opacity:1;isolation:auto;mix-blend-mode:normal;color-interpolation:sRGB;color-interpolation-filters:linearRGB;solid-color:#000000;solid-opacity:1;fill:#d5f6ff;fill-opacity:1;fill-rule:nonzero;stroke:none;stroke-width:23;stroke-linecap:square;stroke-linejoin:bevel;stroke-miterlimit:4;stroke-dasharray:none;stroke-dashoffset:0;stroke-opacity:1;color-rendering:auto;image-rendering:auto;shape-rendering:auto;text-rendering:auto;enable-background:accumulate"
           d="m 2751.3789,1870.7383 0,23 11.5,0 256.4473,0 26.3652,-21.377 0,-1.623 -11.5,0 -271.3125,0 -11.5,0 z"
           transform="translate(-6.1035156e-5,-10.629919)"
           id="path4136-2"
           inkscape:connector-curvature="0" />
        <path
           sodipodi:nodetypes="cccc"
           inkscape:connector-curvature="0"
           id="path4139-2"
           d="m 2661.7589,1660.3466 0,338.2615 338.2615,-338.2615 z"
           style="color:#000000;clip-rule:nonzero;display:inline;overflow:visible;visibility:visible;opacity:1;isolation:auto;mix-blend-mode:normal;color-interpolation:sRGB;color-interpolation-filters:linearRGB;solid-color:#000000;solid-opacity:1;fill:#d84315;fill-opacity:0.61791047;fill-rule:nonzero;stroke:none;stroke-width:25;stroke-linecap:butt;stroke-linejoin:miter;stroke-miterlimit:4;stroke-dasharray:none;stroke-dashoffset:0;stroke-opacity:1;marker:none;color-rendering:auto;image-rendering:auto;shape-rendering:auto;text-rendering:auto;enable-background:accumulate" />
        <path
           style="color:#000000;clip-rule:nonzero;display:inline;overflow:visible;visibility:visible;opacity:1;isolation:auto;mix-blend-mode:normal;color-interpolation:sRGB;color-interpolation-filters:linearRGB;solid-color:#000000;solid-opacity:1;fill:#de9b00;fill-opacity:1;fill-rule:nonzero;stroke:#a67300;stroke-width:14.24080086;stroke-linecap:round;stroke-linejoin:round;stroke-miterlimit:4;stroke-dasharray:none;stroke-dashoffset:0;stroke-opacity:1;marker:none;color-rendering:auto;image-rendering:auto;shape-rendering:auto;text-rendering:auto;enable-background:accumulate"
           d="m 3524.2397,1582.5829 c -73.8793,-73.8793 -173.474,-43.7635 -206.3707,-14.502 l 0,0 c 0,0 -16.8027,54.7462 -1e-4,71.7804 5.8658,-6.0535 76.5912,-60.4071 140.9722,3.9739 55.7158,55.7158 28.7785,120.5696 11.4929,140.6844 l -199.0318,231.6077 c 0,0 -12.9712,16.6997 1.225,30.8959 14.1964,14.1964 30.8975,1.2265 30.8975,1.2265 l 230.8581,-263.7582 c 29.0119,-33.1462 63.8378,-128.0309 -10.0415,-201.9102 z"
           id="path4434-3"
           inkscape:connector-curvature="0"
           sodipodi:nodetypes="sccccscscss" />
        <path
           style="color:#000000;clip-rule:nonzero;display:inline;overflow:visible;visibility:visible;opacity:1;isolation:auto;mix-blend-mode:normal;color-interpolation:sRGB;color-interpolation-filters:linearRGB;solid-color:#000000;solid-opacity:1;fill:#1976d2;fill-opacity:1;fill-rule:nonzero;stroke:#0d5ca7;stroke-width:14.24080086;stroke-linecap:round;stroke-linejoin:round;stroke-miterlimit:4;stroke-dasharray:none;stroke-dashoffset:0;stroke-opacity:1;marker:none;color-rendering:auto;image-rendering:auto;shape-rendering:auto;text-rendering:auto;enable-background:accumulate"
           d="m 3431.1557,1677.3565 c -44.976,-44.9762 -93.1516,0.7942 -93.1516,0.7942 l -394.6844,340.9442 -16.367,69.4746 c 0,0 66.0161,-21.2894 90.134,2.8284 24.1179,24.1179 2.8285,90.17 2.8285,90.17 l 69.5022,-16.3753 340.9442,-394.6844 c 0,0 45.7701,-48.1755 0.7941,-93.1517 z"
           id="path3499-8-1"
           inkscape:connector-curvature="0"
           sodipodi:nodetypes="sccczcccs" />
        <path
           style="fill:#333333;fill-rule:evenodd;stroke:none;stroke-width:1px;stroke-linecap:butt;stroke-linejoin:miter;stroke-opacity:1"
           d="m 2996.0434,2112.4413 c -49.5583,14.9598 -102.1672,22.5102 -161.1264,14.6393 l -60.676,194.0317 112.0047,-112.0046 a 23.928572,23.928572 0 0 1 5.2398,-25.9474 23.928572,23.928572 0 0 1 33.8389,-1e-4 23.928572,23.928572 0 0 1 0,33.8389 23.928572,23.928572 0 0 1 -25.9296,5.2218 l -112.0226,112.0226 194.0318,-60.6758 c -7.8708,-58.9592 -0.3205,-111.5681 14.6394,-161.1264 z"
           id="path3572-9"
           inkscape:connector-curvature="0" />
        <path
           sodipodi:nodetypes="cssczc"
           inkscape:connector-curvature="0"
           id="path4447-4"
           d="m 3506.2181,1513.4692 44.3452,-44.3443 c 75.766,-75.766 164.939,9.8246 87.3824,87.3822 l -44.3449,44.3454 c 0,0 -12.2194,-29.19 -34.4989,-51.4698 -22.2796,-22.2798 -52.8838,-35.9135 -52.8838,-35.9135 z"
           style="color:#000000;display:inline;overflow:visible;visibility:visible;fill:#0044aa;fill-opacity:1;fill-rule:nonzero;stroke:#0b1728;stroke-width:20;stroke-linecap:butt;stroke-linejoin:miter;stroke-miterlimit:4;stroke-dasharray:none;stroke-dashoffset:0;stroke-opacity:1;marker:none;enable-background:accumulate" />
        <path
           style="color:#000000;clip-rule:nonzero;display:inline;overflow:visible;visibility:visible;opacity:1;isolation:auto;mix-blend-mode:normal;color-interpolation:sRGB;color-interpolation-filters:linearRGB;solid-color:#000000;solid-opacity:1;fill:#aaccff;fill-opacity:1;fill-rule:nonzero;stroke:#aaccff;stroke-width:21.01963234;stroke-linecap:round;stroke-linejoin:miter;stroke-miterlimit:4;stroke-dasharray:none;stroke-dashoffset:0;stroke-opacity:1;color-rendering:auto;image-rendering:auto;shape-rendering:auto;text-rendering:auto;enable-background:accumulate"
           d="m 3388.4681,1720.0483 -319.2082,319.2082"
           id="path4570"
           inkscape:connector-curvature="0" />
      </g>
    </g>
  </g>
</svg>
